<?xml version="1.0" encoding="UTF-8"?>
<mxfile host="app.diagrams.net" agent="Mozilla/5.0 (Windows NT 10.0; Win64; x64) AppleWebKit/537.36 (KHTML, like Gecko) Chrome/135.0.0.0 Safari/537.36" version="26.2.14" pages="6">
  <diagram name="AU eRequesting Profiles" id="6eiovPL4Y72YSAhELtvp">
    <mxGraphModel dx="5117" dy="1633" grid="1" gridSize="10" guides="1" tooltips="1" connect="1" arrows="1" fold="1" page="1" pageScale="1" pageWidth="2000" pageHeight="2000" math="0" shadow="0">
      <root>
        <mxCell id="PgWZOQR5m6sQphYpGkv8-0" />
        <mxCell id="PgWZOQR5m6sQphYpGkv8-1" parent="PgWZOQR5m6sQphYpGkv8-0" />
        <mxCell id="Ngkf4AGaMlCrf4H9YpIq-0" value="" style="rounded=0;whiteSpace=wrap;html=1;movable=1;resizable=1;rotatable=1;deletable=1;editable=1;locked=0;connectable=1;" parent="PgWZOQR5m6sQphYpGkv8-1" vertex="1">
          <mxGeometry x="-3130" y="902" width="1420" height="718" as="geometry" />
        </mxCell>
        <mxCell id="Ngkf4AGaMlCrf4H9YpIq-1" value="&lt;i&gt;&lt;font style=&quot;font-size: 14px;&quot;&gt;AU eRequesting Task&lt;/font&gt;&lt;/i&gt;" style="swimlane;whiteSpace=wrap;html=1;startSize=23;fillColor=#00B0F0;fontColor=#FFFFFF;dashed=1;" parent="PgWZOQR5m6sQphYpGkv8-1" vertex="1">
          <mxGeometry x="-3290" y="447" width="580" height="393" as="geometry" />
        </mxCell>
        <mxCell id="Ngkf4AGaMlCrf4H9YpIq-2" value="&lt;font style=&quot;font-size: 14px;&quot;&gt;Task Group&lt;/font&gt;" style="swimlane;whiteSpace=wrap;html=1;startSize=23;fillColor=#00B0F0;fontColor=#FFFFFF;" parent="Ngkf4AGaMlCrf4H9YpIq-1" vertex="1">
          <mxGeometry x="30" y="60" width="210" height="144" as="geometry" />
        </mxCell>
        <mxCell id="Ngkf4AGaMlCrf4H9YpIq-3" value="&lt;font style=&quot;font-size: 14px;&quot;&gt;Task Diagnostic Request&lt;/font&gt;" style="swimlane;whiteSpace=wrap;html=1;startSize=23;fillColor=#00B0F0;fontColor=#FFFFFF;" parent="Ngkf4AGaMlCrf4H9YpIq-1" vertex="1">
          <mxGeometry x="340" y="60" width="210" height="144" as="geometry" />
        </mxCell>
        <mxCell id="Ngkf4AGaMlCrf4H9YpIq-4" style="edgeStyle=orthogonalEdgeStyle;rounded=0;orthogonalLoop=1;jettySize=auto;html=1;entryX=1;entryY=0.5;entryDx=0;entryDy=0;exitX=0;exitY=0.5;exitDx=0;exitDy=0;" parent="Ngkf4AGaMlCrf4H9YpIq-1" source="Ngkf4AGaMlCrf4H9YpIq-3" target="Ngkf4AGaMlCrf4H9YpIq-2" edge="1">
          <mxGeometry relative="1" as="geometry" />
        </mxCell>
        <mxCell id="Ngkf4AGaMlCrf4H9YpIq-5" value="&lt;font style=&quot;font-size: 14px;&quot;&gt;partOf&lt;/font&gt;" style="edgeLabel;html=1;align=center;verticalAlign=middle;resizable=0;points=[];" parent="Ngkf4AGaMlCrf4H9YpIq-4" vertex="1" connectable="0">
          <mxGeometry x="0.125" relative="1" as="geometry">
            <mxPoint x="7" y="-13" as="offset" />
          </mxGeometry>
        </mxCell>
        <mxCell id="KHZRQKS00LLV6VtBtWU2-11" style="edgeStyle=orthogonalEdgeStyle;rounded=0;orthogonalLoop=1;jettySize=auto;html=1;entryX=1;entryY=0.5;entryDx=0;entryDy=0;" edge="1" parent="Ngkf4AGaMlCrf4H9YpIq-1" source="KHZRQKS00LLV6VtBtWU2-1" target="Ngkf4AGaMlCrf4H9YpIq-2">
          <mxGeometry relative="1" as="geometry" />
        </mxCell>
        <mxCell id="KHZRQKS00LLV6VtBtWU2-1" value="&lt;font style=&quot;font-size: 14px;&quot;&gt;Task Communication Request&lt;/font&gt;" style="swimlane;whiteSpace=wrap;html=1;startSize=23;fillColor=#00B0F0;fontColor=#FFFFFF;" vertex="1" parent="Ngkf4AGaMlCrf4H9YpIq-1">
          <mxGeometry x="185" y="233" width="210" height="144" as="geometry" />
        </mxCell>
        <mxCell id="Ngkf4AGaMlCrf4H9YpIq-6" style="edgeStyle=orthogonalEdgeStyle;rounded=0;orthogonalLoop=1;jettySize=auto;html=1;entryX=0;entryY=0.75;entryDx=0;entryDy=0;" parent="PgWZOQR5m6sQphYpGkv8-1" edge="1">
          <mxGeometry relative="1" as="geometry">
            <mxPoint x="-2590" y="120" as="sourcePoint" />
            <Array as="points">
              <mxPoint x="-2570" y="120" />
              <mxPoint x="-2570" y="120" />
            </Array>
            <mxPoint x="-2430" y="120" as="targetPoint" />
          </mxGeometry>
        </mxCell>
        <mxCell id="Ngkf4AGaMlCrf4H9YpIq-7" value="&lt;font style=&quot;font-size: 14px;&quot;&gt;insurance&lt;/font&gt;" style="edgeLabel;html=1;align=center;verticalAlign=middle;resizable=0;points=[];" parent="Ngkf4AGaMlCrf4H9YpIq-6" vertex="1" connectable="0">
          <mxGeometry x="-0.3013" y="-2" relative="1" as="geometry">
            <mxPoint x="-16" y="-12" as="offset" />
          </mxGeometry>
        </mxCell>
        <mxCell id="Ngkf4AGaMlCrf4H9YpIq-8" style="edgeStyle=orthogonalEdgeStyle;rounded=0;orthogonalLoop=1;jettySize=auto;html=1;entryX=1;entryY=0.5;entryDx=0;entryDy=0;exitX=0;exitY=0.25;exitDx=0;exitDy=0;" parent="PgWZOQR5m6sQphYpGkv8-1" source="Ngkf4AGaMlCrf4H9YpIq-12" target="Ngkf4AGaMlCrf4H9YpIq-33" edge="1">
          <mxGeometry relative="1" as="geometry">
            <mxPoint x="-3190" y="190" as="sourcePoint" />
          </mxGeometry>
        </mxCell>
        <mxCell id="Ngkf4AGaMlCrf4H9YpIq-9" value="&lt;font style=&quot;font-size: 14px;&quot;&gt;encounter&lt;/font&gt;" style="edgeLabel;html=1;align=center;verticalAlign=middle;resizable=0;points=[];" parent="Ngkf4AGaMlCrf4H9YpIq-8" vertex="1" connectable="0">
          <mxGeometry x="-0.0111" y="-1" relative="1" as="geometry">
            <mxPoint x="38" y="-14" as="offset" />
          </mxGeometry>
        </mxCell>
        <mxCell id="Ngkf4AGaMlCrf4H9YpIq-10" style="edgeStyle=orthogonalEdgeStyle;rounded=0;orthogonalLoop=1;jettySize=auto;html=1;" parent="PgWZOQR5m6sQphYpGkv8-1" edge="1">
          <mxGeometry relative="1" as="geometry">
            <mxPoint x="-2590" y="223" as="sourcePoint" />
            <mxPoint x="-2340" y="223" as="targetPoint" />
            <Array as="points">
              <mxPoint x="-2560" y="223" />
            </Array>
          </mxGeometry>
        </mxCell>
        <mxCell id="Ngkf4AGaMlCrf4H9YpIq-11" value="&lt;font style=&quot;font-size: 14px;&quot;&gt;supportingInfo:pregnancyStatus&lt;/font&gt;" style="edgeLabel;html=1;align=center;verticalAlign=middle;resizable=0;points=[];" parent="Ngkf4AGaMlCrf4H9YpIq-10" vertex="1" connectable="0">
          <mxGeometry x="-0.7204" y="3" relative="1" as="geometry">
            <mxPoint x="75" y="-10" as="offset" />
          </mxGeometry>
        </mxCell>
        <mxCell id="Ngkf4AGaMlCrf4H9YpIq-12" value="&lt;i&gt;&lt;font style=&quot;font-size: 14px;&quot;&gt;AU eRequesting Diagnostic Request&lt;/font&gt;&lt;/i&gt;" style="swimlane;whiteSpace=wrap;html=1;startSize=23;fillColor=#00B0F0;fontColor=#FFFFFF;strokeColor=#000000;dashed=1;" parent="PgWZOQR5m6sQphYpGkv8-1" vertex="1">
          <mxGeometry x="-3150" y="80" width="560" height="220" as="geometry" />
        </mxCell>
        <mxCell id="Ngkf4AGaMlCrf4H9YpIq-13" value="&lt;font style=&quot;font-size: 14px;&quot;&gt;Pathology Request&lt;/font&gt;" style="swimlane;whiteSpace=wrap;html=1;fillColor=#00B0F0;fontColor=#FFFFFF;startSize=25;verticalAlign=middle;" parent="Ngkf4AGaMlCrf4H9YpIq-12" vertex="1">
          <mxGeometry x="320" y="45" width="210" height="144" as="geometry" />
        </mxCell>
        <mxCell id="Ngkf4AGaMlCrf4H9YpIq-14" value="&lt;font style=&quot;font-size: 14px;&quot;&gt;Imaging Request&lt;/font&gt;" style="swimlane;whiteSpace=wrap;html=1;fillColor=#00B0F0;fontColor=#FFFFFF;startSize=25;" parent="Ngkf4AGaMlCrf4H9YpIq-12" vertex="1">
          <mxGeometry x="50" y="45" width="210" height="144" as="geometry" />
        </mxCell>
        <mxCell id="Ngkf4AGaMlCrf4H9YpIq-15" value="&lt;font style=&quot;font-size: 14px;&quot;&gt;AUCorePatient&lt;/font&gt;" style="swimlane;whiteSpace=wrap;html=1;fillColor=#00b050;fontColor=#FFFFFF;" parent="PgWZOQR5m6sQphYpGkv8-1" vertex="1">
          <mxGeometry x="-2570" y="497" width="180" height="130" as="geometry" />
        </mxCell>
        <mxCell id="Ngkf4AGaMlCrf4H9YpIq-16" style="edgeStyle=orthogonalEdgeStyle;rounded=0;orthogonalLoop=1;jettySize=auto;html=1;entryX=1;entryY=0.5;entryDx=0;entryDy=0;" parent="PgWZOQR5m6sQphYpGkv8-1" source="Ngkf4AGaMlCrf4H9YpIq-18" target="Ngkf4AGaMlCrf4H9YpIq-64" edge="1">
          <mxGeometry relative="1" as="geometry" />
        </mxCell>
        <mxCell id="Ngkf4AGaMlCrf4H9YpIq-17" value="&lt;font style=&quot;font-size: 14px;&quot;&gt;practitioner&lt;/font&gt;" style="edgeLabel;html=1;align=center;verticalAlign=middle;resizable=0;points=[];" parent="Ngkf4AGaMlCrf4H9YpIq-16" vertex="1" connectable="0">
          <mxGeometry x="-0.1441" y="-1" relative="1" as="geometry">
            <mxPoint x="13" y="-14" as="offset" />
          </mxGeometry>
        </mxCell>
        <mxCell id="Ngkf4AGaMlCrf4H9YpIq-18" value="&lt;font style=&quot;font-size: 14px;&quot;&gt;AUCorePractitionerRole&lt;/font&gt;" style="swimlane;whiteSpace=wrap;html=1;fillColor=#00b050;fontColor=#FFFFFF;" parent="PgWZOQR5m6sQphYpGkv8-1" vertex="1">
          <mxGeometry x="-3605" y="390" width="180" height="130" as="geometry" />
        </mxCell>
        <mxCell id="Ngkf4AGaMlCrf4H9YpIq-19" style="rounded=0;orthogonalLoop=1;jettySize=auto;html=1;edgeStyle=elbowEdgeStyle;entryX=0.5;entryY=0;entryDx=0;entryDy=0;elbow=vertical;jumpStyle=arc;" parent="PgWZOQR5m6sQphYpGkv8-1" target="Ngkf4AGaMlCrf4H9YpIq-15" edge="1">
          <mxGeometry relative="1" as="geometry">
            <mxPoint x="-2590" y="270" as="sourcePoint" />
            <mxPoint x="-2440" y="497" as="targetPoint" />
            <Array as="points">
              <mxPoint x="-2530" y="270" />
            </Array>
          </mxGeometry>
        </mxCell>
        <mxCell id="Ngkf4AGaMlCrf4H9YpIq-20" value="&lt;font style=&quot;font-size: 14px;&quot;&gt;subject&lt;/font&gt;" style="edgeLabel;html=1;align=center;verticalAlign=middle;resizable=0;points=[];" parent="Ngkf4AGaMlCrf4H9YpIq-19" vertex="1" connectable="0">
          <mxGeometry x="-0.5724" y="-2" relative="1" as="geometry">
            <mxPoint x="-42" y="-12" as="offset" />
          </mxGeometry>
        </mxCell>
        <mxCell id="Ngkf4AGaMlCrf4H9YpIq-21" style="rounded=0;orthogonalLoop=1;jettySize=auto;html=1;edgeStyle=elbowEdgeStyle;elbow=vertical;entryX=0.5;entryY=0;entryDx=0;entryDy=0;jumpStyle=arc;exitX=0;exitY=0.75;exitDx=0;exitDy=0;" parent="PgWZOQR5m6sQphYpGkv8-1" source="Ngkf4AGaMlCrf4H9YpIq-12" target="Ngkf4AGaMlCrf4H9YpIq-18" edge="1">
          <mxGeometry relative="1" as="geometry">
            <mxPoint x="-3350" y="250" as="sourcePoint" />
            <mxPoint x="-3258" y="840" as="targetPoint" />
            <Array as="points">
              <mxPoint x="-3380" y="240" />
              <mxPoint x="-3320" y="245" />
            </Array>
          </mxGeometry>
        </mxCell>
        <mxCell id="Ngkf4AGaMlCrf4H9YpIq-22" value="&lt;span style=&quot;text-wrap: wrap; background-color: rgb(251, 251, 251);&quot;&gt;&lt;font style=&quot;font-size: 14px;&quot;&gt;requester&lt;/font&gt;&lt;/span&gt;" style="edgeLabel;html=1;align=center;verticalAlign=middle;resizable=0;points=[];" parent="Ngkf4AGaMlCrf4H9YpIq-21" vertex="1" connectable="0">
          <mxGeometry x="-0.8057" y="2" relative="1" as="geometry">
            <mxPoint x="12" y="-18" as="offset" />
          </mxGeometry>
        </mxCell>
        <mxCell id="Ngkf4AGaMlCrf4H9YpIq-23" style="rounded=0;orthogonalLoop=1;jettySize=auto;html=1;edgeStyle=elbowEdgeStyle;elbow=vertical;jumpStyle=arc;entryX=0.5;entryY=1;entryDx=0;entryDy=0;exitX=0.5;exitY=0;exitDx=0;exitDy=0;" parent="PgWZOQR5m6sQphYpGkv8-1" source="Ngkf4AGaMlCrf4H9YpIq-3" target="Ngkf4AGaMlCrf4H9YpIq-13" edge="1">
          <mxGeometry relative="1" as="geometry">
            <mxPoint x="-2928" y="480" as="sourcePoint" />
            <mxPoint x="-2870" y="430" as="targetPoint" />
            <Array as="points">
              <mxPoint x="-2790" y="380" />
            </Array>
          </mxGeometry>
        </mxCell>
        <mxCell id="Ngkf4AGaMlCrf4H9YpIq-24" style="rounded=0;orthogonalLoop=1;jettySize=auto;html=1;edgeStyle=elbowEdgeStyle;flowAnimation=0;jumpStyle=arc;entryX=0;entryY=0.5;entryDx=0;entryDy=0;" parent="PgWZOQR5m6sQphYpGkv8-1" target="Ngkf4AGaMlCrf4H9YpIq-15" edge="1">
          <mxGeometry relative="1" as="geometry">
            <mxPoint x="-2710" y="562" as="sourcePoint" />
            <mxPoint x="-2590" y="701" as="targetPoint" />
          </mxGeometry>
        </mxCell>
        <mxCell id="Ngkf4AGaMlCrf4H9YpIq-25" value="&lt;font style=&quot;font-size: 14px;&quot;&gt;for&lt;/font&gt;" style="edgeLabel;html=1;align=center;verticalAlign=middle;resizable=0;points=[];" parent="Ngkf4AGaMlCrf4H9YpIq-24" vertex="1" connectable="0">
          <mxGeometry x="-0.4734" y="2" relative="1" as="geometry">
            <mxPoint x="-16" y="-13" as="offset" />
          </mxGeometry>
        </mxCell>
        <mxCell id="Ngkf4AGaMlCrf4H9YpIq-26" style="rounded=0;orthogonalLoop=1;jettySize=auto;html=1;edgeStyle=elbowEdgeStyle;entryX=1;entryY=0.75;entryDx=0;entryDy=0;jumpStyle=arc;" parent="PgWZOQR5m6sQphYpGkv8-1" target="Ngkf4AGaMlCrf4H9YpIq-18" edge="1">
          <mxGeometry relative="1" as="geometry">
            <mxPoint x="-3290" y="488" as="sourcePoint" />
            <mxPoint x="-3128" y="890" as="targetPoint" />
            <Array as="points">
              <mxPoint x="-3330" y="570" />
            </Array>
          </mxGeometry>
        </mxCell>
        <mxCell id="Ngkf4AGaMlCrf4H9YpIq-27" value="&lt;font style=&quot;font-size: 14px;&quot;&gt;requester&lt;/font&gt;" style="edgeLabel;html=1;align=center;verticalAlign=middle;resizable=0;points=[];" parent="Ngkf4AGaMlCrf4H9YpIq-26" vertex="1" connectable="0">
          <mxGeometry x="-0.2207" y="2" relative="1" as="geometry">
            <mxPoint x="13" y="-17" as="offset" />
          </mxGeometry>
        </mxCell>
        <mxCell id="Ngkf4AGaMlCrf4H9YpIq-28" value="&lt;font style=&quot;font-size: 14px;&quot;&gt;AUCoreOrganization&lt;/font&gt;" style="swimlane;whiteSpace=wrap;html=1;fillColor=#00b050;fontColor=#FFFFFF;direction=east;startSize=23;" parent="PgWZOQR5m6sQphYpGkv8-1" vertex="1">
          <mxGeometry x="-3605" y="550" width="180" height="130" as="geometry" />
        </mxCell>
        <mxCell id="Ngkf4AGaMlCrf4H9YpIq-29" style="rounded=0;orthogonalLoop=1;jettySize=auto;html=1;edgeStyle=elbowEdgeStyle;entryX=1;entryY=0.5;entryDx=0;entryDy=0;elbow=vertical;jumpStyle=arc;" parent="PgWZOQR5m6sQphYpGkv8-1" target="Ngkf4AGaMlCrf4H9YpIq-28" edge="1">
          <mxGeometry relative="1" as="geometry">
            <mxPoint x="-3290" y="615" as="sourcePoint" />
            <mxPoint x="-2917" y="911" as="targetPoint" />
            <Array as="points">
              <mxPoint x="-3370" y="615" />
            </Array>
          </mxGeometry>
        </mxCell>
        <mxCell id="Ngkf4AGaMlCrf4H9YpIq-30" value="&lt;font style=&quot;font-size: 14px;&quot;&gt;owner&lt;/font&gt;" style="edgeLabel;html=1;align=center;verticalAlign=middle;resizable=0;points=[];" parent="Ngkf4AGaMlCrf4H9YpIq-29" vertex="1" connectable="0">
          <mxGeometry x="-0.2388" y="1" relative="1" as="geometry">
            <mxPoint x="24" y="-12" as="offset" />
          </mxGeometry>
        </mxCell>
        <mxCell id="Ngkf4AGaMlCrf4H9YpIq-31" style="edgeStyle=orthogonalEdgeStyle;rounded=0;orthogonalLoop=1;jettySize=auto;html=1;exitX=0.5;exitY=0;exitDx=0;exitDy=0;entryX=0.5;entryY=1;entryDx=0;entryDy=0;" parent="PgWZOQR5m6sQphYpGkv8-1" source="Ngkf4AGaMlCrf4H9YpIq-3" target="Ngkf4AGaMlCrf4H9YpIq-14" edge="1">
          <mxGeometry relative="1" as="geometry">
            <mxPoint x="-3070" y="380" as="targetPoint" />
            <Array as="points">
              <mxPoint x="-2845" y="380" />
              <mxPoint x="-2995" y="380" />
            </Array>
          </mxGeometry>
        </mxCell>
        <mxCell id="Ngkf4AGaMlCrf4H9YpIq-32" value="&lt;font style=&quot;font-size: 14px;&quot;&gt;focus&lt;/font&gt;" style="edgeLabel;html=1;align=center;verticalAlign=middle;resizable=0;points=[];" parent="Ngkf4AGaMlCrf4H9YpIq-31" vertex="1" connectable="0">
          <mxGeometry x="0.2296" relative="1" as="geometry">
            <mxPoint x="137" y="110" as="offset" />
          </mxGeometry>
        </mxCell>
        <mxCell id="Ngkf4AGaMlCrf4H9YpIq-33" value="&lt;font style=&quot;font-size: 14px;&quot;&gt;AUCoreEncounter&lt;/font&gt;" style="swimlane;whiteSpace=wrap;html=1;fillColor=#00b050;fontColor=#FFFFFF;snapToPoint=0;" parent="PgWZOQR5m6sQphYpGkv8-1" vertex="1">
          <mxGeometry x="-3490" y="70" width="180" height="130" as="geometry" />
        </mxCell>
        <mxCell id="Ngkf4AGaMlCrf4H9YpIq-34" value="&lt;font style=&quot;font-size: 14px;&quot;&gt;Observation Pregnancy -&lt;/font&gt;&lt;div&gt;&lt;font style=&quot;font-size: 14px;&quot;&gt;Status (IPS)&lt;/font&gt;&lt;/div&gt;" style="swimlane;whiteSpace=wrap;html=1;fillColor=light-dark(#ff9900, #9a5800);strokeColor=light-dark(#000000, #c17f1f);startSize=40;fontSize=12;verticalAlign=bottom;horizontal=1;fontColor=#FFFFFF;snapToPoint=0;" parent="PgWZOQR5m6sQphYpGkv8-1" vertex="1">
          <mxGeometry x="-2340" y="180" width="190" height="130" as="geometry" />
        </mxCell>
        <mxCell id="Ngkf4AGaMlCrf4H9YpIq-35" value="" style="rounded=0;whiteSpace=wrap;html=1;" parent="PgWZOQR5m6sQphYpGkv8-1" vertex="1">
          <mxGeometry x="-3990" y="928" width="835" height="610" as="geometry" />
        </mxCell>
        <mxCell id="Ngkf4AGaMlCrf4H9YpIq-50" style="edgeStyle=orthogonalEdgeStyle;rounded=0;orthogonalLoop=1;jettySize=auto;html=1;exitX=0;exitY=0.5;exitDx=0;exitDy=0;entryX=1;entryY=0.5;entryDx=0;entryDy=0;" parent="PgWZOQR5m6sQphYpGkv8-1" source="Ngkf4AGaMlCrf4H9YpIq-58" target="Ngkf4AGaMlCrf4H9YpIq-56" edge="1">
          <mxGeometry relative="1" as="geometry">
            <mxPoint x="-3680" y="1081" as="sourcePoint" />
            <mxPoint x="-3790" y="1118" as="targetPoint" />
            <Array as="points">
              <mxPoint x="-3720" y="1113" />
              <mxPoint x="-3720" y="1113" />
            </Array>
          </mxGeometry>
        </mxCell>
        <mxCell id="Ngkf4AGaMlCrf4H9YpIq-51" value="&lt;font style=&quot;font-size: 14px;&quot;&gt;organization&lt;/font&gt;" style="edgeLabel;html=1;align=center;verticalAlign=middle;resizable=0;points=[];" parent="Ngkf4AGaMlCrf4H9YpIq-50" vertex="1" connectable="0">
          <mxGeometry x="-0.7134" relative="1" as="geometry">
            <mxPoint x="-26" y="-15" as="offset" />
          </mxGeometry>
        </mxCell>
        <mxCell id="Ngkf4AGaMlCrf4H9YpIq-52" style="edgeStyle=orthogonalEdgeStyle;rounded=0;orthogonalLoop=1;jettySize=auto;html=1;entryX=0;entryY=0.75;entryDx=0;entryDy=0;exitX=1;exitY=0.75;exitDx=0;exitDy=0;" parent="PgWZOQR5m6sQphYpGkv8-1" source="Ngkf4AGaMlCrf4H9YpIq-58" target="Ngkf4AGaMlCrf4H9YpIq-57" edge="1">
          <mxGeometry relative="1" as="geometry">
            <Array as="points">
              <mxPoint x="-3400" y="1146" />
              <mxPoint x="-3320" y="1146" />
            </Array>
            <mxPoint x="-3470" y="1146" as="sourcePoint" />
          </mxGeometry>
        </mxCell>
        <mxCell id="Ngkf4AGaMlCrf4H9YpIq-53" value="&lt;font style=&quot;font-size: 14px;&quot;&gt;performer&lt;/font&gt;" style="edgeLabel;html=1;align=center;verticalAlign=middle;resizable=0;points=[];" parent="Ngkf4AGaMlCrf4H9YpIq-52" vertex="1" connectable="0">
          <mxGeometry x="-0.6729" y="1" relative="1" as="geometry">
            <mxPoint x="14" y="-17" as="offset" />
          </mxGeometry>
        </mxCell>
        <mxCell id="Ngkf4AGaMlCrf4H9YpIq-54" style="edgeStyle=orthogonalEdgeStyle;rounded=0;orthogonalLoop=1;jettySize=auto;html=1;exitX=1;exitY=0.25;exitDx=0;exitDy=0;entryX=0;entryY=0.25;entryDx=0;entryDy=0;" parent="PgWZOQR5m6sQphYpGkv8-1" source="Ngkf4AGaMlCrf4H9YpIq-58" target="Ngkf4AGaMlCrf4H9YpIq-57" edge="1">
          <mxGeometry relative="1" as="geometry">
            <mxPoint x="-3320" y="1081" as="targetPoint" />
            <Array as="points">
              <mxPoint x="-3450" y="1080" />
              <mxPoint x="-3420" y="1081" />
            </Array>
            <mxPoint x="-3460" y="1078" as="sourcePoint" />
          </mxGeometry>
        </mxCell>
        <mxCell id="Ngkf4AGaMlCrf4H9YpIq-55" value="&lt;font style=&quot;font-size: 14px;&quot;&gt;patient&lt;/font&gt;" style="edgeLabel;html=1;align=center;verticalAlign=middle;resizable=0;points=[];" parent="Ngkf4AGaMlCrf4H9YpIq-54" vertex="1" connectable="0">
          <mxGeometry x="-0.7813" y="1" relative="1" as="geometry">
            <mxPoint x="11" y="-11" as="offset" />
          </mxGeometry>
        </mxCell>
        <mxCell id="Ngkf4AGaMlCrf4H9YpIq-56" value="&lt;font style=&quot;font-size: 14px;&quot;&gt;AUCoreOrganization&lt;/font&gt;" style="swimlane;whiteSpace=wrap;html=1;fillColor=#00b050;fontColor=#FFFFFF;" parent="PgWZOQR5m6sQphYpGkv8-1" vertex="1">
          <mxGeometry x="-3970" y="1048" width="173" height="130" as="geometry" />
        </mxCell>
        <mxCell id="Ngkf4AGaMlCrf4H9YpIq-57" value="&lt;font style=&quot;font-size: 14px;&quot;&gt;AUCorePatient&lt;/font&gt;" style="swimlane;whiteSpace=wrap;html=1;fillColor=#00b050;fontColor=#FFFFFF;" parent="PgWZOQR5m6sQphYpGkv8-1" vertex="1">
          <mxGeometry x="-3350" y="1048" width="173" height="130" as="geometry" />
        </mxCell>
        <mxCell id="Ngkf4AGaMlCrf4H9YpIq-58" value="&lt;font style=&quot;font-size: 14px;&quot;&gt;MHR Consent Withdrawal&lt;/font&gt;" style="swimlane;whiteSpace=wrap;html=1;fillColor=#00B0F0;fontColor=#FFFFFF;startSize=25;verticalAlign=middle;" parent="PgWZOQR5m6sQphYpGkv8-1" vertex="1">
          <mxGeometry x="-3660" y="1048" width="173" height="130" as="geometry" />
        </mxCell>
        <mxCell id="Ngkf4AGaMlCrf4H9YpIq-59" value="&lt;font style=&quot;font-size: 24px;&quot;&gt;Consent&lt;/font&gt;" style="text;html=1;align=center;verticalAlign=middle;resizable=0;points=[];autosize=1;strokeColor=none;fillColor=none;" parent="PgWZOQR5m6sQphYpGkv8-1" vertex="1">
          <mxGeometry x="-3625" y="948" width="110" height="40" as="geometry" />
        </mxCell>
        <mxCell id="Ngkf4AGaMlCrf4H9YpIq-63" value="&lt;font style=&quot;font-size: 14px;&quot;&gt;AU eRequesting Coverage&amp;nbsp;&lt;/font&gt;" style="swimlane;whiteSpace=wrap;html=1;fillColor=#00B0F0;fontColor=#FFFFFF;startSize=25;verticalAlign=middle;" parent="PgWZOQR5m6sQphYpGkv8-1" vertex="1">
          <mxGeometry x="-2430" y="30" width="190" height="130" as="geometry" />
        </mxCell>
        <mxCell id="Ngkf4AGaMlCrf4H9YpIq-64" value="&lt;font style=&quot;font-size: 14px;&quot;&gt;AUCorePractitioner&lt;/font&gt;" style="swimlane;whiteSpace=wrap;html=1;fillColor=#00b050;fontColor=#FFFFFF;" parent="PgWZOQR5m6sQphYpGkv8-1" vertex="1">
          <mxGeometry x="-3920" y="390" width="180" height="130" as="geometry" />
        </mxCell>
        <mxCell id="Ngkf4AGaMlCrf4H9YpIq-65" value="&lt;i&gt;&lt;font style=&quot;font-size: 14px;&quot;&gt;AU eRequesting Diagnostic Request&lt;/font&gt;&lt;/i&gt;" style="swimlane;whiteSpace=wrap;html=1;startSize=23;fillColor=#00B0F0;fontColor=#FFFFFF;strokeColor=#000000;dashed=1;" parent="PgWZOQR5m6sQphYpGkv8-1" vertex="1">
          <mxGeometry x="-3825" y="1308" width="510" height="210" as="geometry" />
        </mxCell>
        <mxCell id="Ngkf4AGaMlCrf4H9YpIq-66" value="&lt;font style=&quot;font-size: 14px;&quot;&gt;Pathology Request&lt;/font&gt;" style="swimlane;whiteSpace=wrap;html=1;fillColor=#00B0F0;fontColor=#FFFFFF;startSize=25;verticalAlign=middle;" parent="Ngkf4AGaMlCrf4H9YpIq-65" vertex="1">
          <mxGeometry x="280" y="45" width="210" height="144" as="geometry" />
        </mxCell>
        <mxCell id="Ngkf4AGaMlCrf4H9YpIq-67" value="&lt;font style=&quot;font-size: 14px;&quot;&gt;Imaging Request&lt;/font&gt;" style="swimlane;whiteSpace=wrap;html=1;fillColor=#00B0F0;fontColor=#FFFFFF;startSize=25;" parent="Ngkf4AGaMlCrf4H9YpIq-65" vertex="1">
          <mxGeometry x="20" y="45" width="210" height="144" as="geometry" />
        </mxCell>
        <mxCell id="Ngkf4AGaMlCrf4H9YpIq-68" style="edgeStyle=orthogonalEdgeStyle;rounded=0;orthogonalLoop=1;jettySize=auto;html=1;entryX=0.5;entryY=0;entryDx=0;entryDy=0;exitX=0.5;exitY=1;exitDx=0;exitDy=0;" parent="PgWZOQR5m6sQphYpGkv8-1" source="Ngkf4AGaMlCrf4H9YpIq-58" target="Ngkf4AGaMlCrf4H9YpIq-67" edge="1">
          <mxGeometry relative="1" as="geometry">
            <mxPoint x="-3705" y="1316.9999999999998" as="targetPoint" />
            <Array as="points">
              <mxPoint x="-3573" y="1268" />
              <mxPoint x="-3700" y="1268" />
            </Array>
            <mxPoint x="-3570" y="1198" as="sourcePoint" />
          </mxGeometry>
        </mxCell>
        <mxCell id="Ngkf4AGaMlCrf4H9YpIq-69" value="&lt;font style=&quot;font-size: 14px;&quot;&gt;data:reference&lt;/font&gt;" style="edgeLabel;html=1;align=center;verticalAlign=middle;resizable=0;points=[];" parent="Ngkf4AGaMlCrf4H9YpIq-68" vertex="1" connectable="0">
          <mxGeometry x="0.2296" relative="1" as="geometry">
            <mxPoint x="157" y="-70" as="offset" />
          </mxGeometry>
        </mxCell>
        <mxCell id="Ngkf4AGaMlCrf4H9YpIq-70" style="rounded=0;orthogonalLoop=1;jettySize=auto;html=1;edgeStyle=elbowEdgeStyle;elbow=vertical;jumpStyle=arc;exitX=0.5;exitY=1;exitDx=0;exitDy=0;entryX=0.5;entryY=0;entryDx=0;entryDy=0;" parent="PgWZOQR5m6sQphYpGkv8-1" source="Ngkf4AGaMlCrf4H9YpIq-58" target="Ngkf4AGaMlCrf4H9YpIq-66" edge="1">
          <mxGeometry relative="1" as="geometry">
            <mxPoint x="-3570" y="1188" as="sourcePoint" />
            <mxPoint x="-3421" y="1354" as="targetPoint" />
            <Array as="points">
              <mxPoint x="-3515" y="1268" />
            </Array>
          </mxGeometry>
        </mxCell>
        <mxCell id="KHZRQKS00LLV6VtBtWU2-46" value="about" style="edgeStyle=orthogonalEdgeStyle;rounded=0;orthogonalLoop=1;jettySize=auto;html=1;exitX=0.75;exitY=1;exitDx=0;exitDy=0;entryX=0.5;entryY=0;entryDx=0;entryDy=0;fontSize=14;jumpStyle=arc;" edge="1" parent="PgWZOQR5m6sQphYpGkv8-1" source="KHZRQKS00LLV6VtBtWU2-91" target="KHZRQKS00LLV6VtBtWU2-116">
          <mxGeometry x="0.4986" y="10" relative="1" as="geometry">
            <mxPoint x="-3007" y="865" as="sourcePoint" />
            <mxPoint x="-3127" y="626" as="targetPoint" />
            <Array as="points">
              <mxPoint x="-2206" y="1375" />
              <mxPoint x="-2037" y="1375" />
            </Array>
            <mxPoint as="offset" />
          </mxGeometry>
        </mxCell>
        <mxCell id="KHZRQKS00LLV6VtBtWU2-61" style="edgeStyle=orthogonalEdgeStyle;rounded=0;orthogonalLoop=1;jettySize=auto;html=1;" edge="1" parent="PgWZOQR5m6sQphYpGkv8-1" source="KHZRQKS00LLV6VtBtWU2-63" target="KHZRQKS00LLV6VtBtWU2-81">
          <mxGeometry relative="1" as="geometry" />
        </mxCell>
        <mxCell id="KHZRQKS00LLV6VtBtWU2-62" value="&lt;font style=&quot;font-size: 14px;&quot;&gt;practitioner&lt;/font&gt;" style="edgeLabel;html=1;align=center;verticalAlign=middle;resizable=0;points=[];" vertex="1" connectable="0" parent="KHZRQKS00LLV6VtBtWU2-61">
          <mxGeometry x="-0.4067" y="1" relative="1" as="geometry">
            <mxPoint x="-51" y="2" as="offset" />
          </mxGeometry>
        </mxCell>
        <mxCell id="KHZRQKS00LLV6VtBtWU2-63" value="&lt;font style=&quot;font-size: 14px;&quot;&gt;AUCorePractitionerRole&lt;/font&gt;" style="swimlane;whiteSpace=wrap;html=1;fillColor=#00b050;fontColor=#FFFFFF;" vertex="1" parent="PgWZOQR5m6sQphYpGkv8-1">
          <mxGeometry x="-3107" y="1207" width="180" height="130" as="geometry" />
        </mxCell>
        <mxCell id="KHZRQKS00LLV6VtBtWU2-64" style="edgeStyle=orthogonalEdgeStyle;rounded=0;orthogonalLoop=1;jettySize=auto;html=1;exitX=0;exitY=0.25;exitDx=0;exitDy=0;entryX=1;entryY=0.5;entryDx=0;entryDy=0;" edge="1" parent="PgWZOQR5m6sQphYpGkv8-1" target="KHZRQKS00LLV6VtBtWU2-72">
          <mxGeometry relative="1" as="geometry">
            <mxPoint x="-2757" y="1169.5" as="sourcePoint" />
            <mxPoint x="-2817" y="1077" as="targetPoint" />
            <Array as="points">
              <mxPoint x="-2847" y="1170" />
              <mxPoint x="-2847" y="1112" />
            </Array>
          </mxGeometry>
        </mxCell>
        <mxCell id="KHZRQKS00LLV6VtBtWU2-65" value="&lt;font style=&quot;font-size: 14px;&quot;&gt;sender&lt;/font&gt;" style="edgeLabel;html=1;align=center;verticalAlign=middle;resizable=0;points=[];" vertex="1" connectable="0" parent="KHZRQKS00LLV6VtBtWU2-64">
          <mxGeometry x="-0.7134" relative="1" as="geometry">
            <mxPoint x="-2" y="-15" as="offset" />
          </mxGeometry>
        </mxCell>
        <mxCell id="KHZRQKS00LLV6VtBtWU2-70" style="edgeStyle=orthogonalEdgeStyle;rounded=0;orthogonalLoop=1;jettySize=auto;html=1;entryX=1;entryY=0.5;entryDx=0;entryDy=0;exitX=0;exitY=0.75;exitDx=0;exitDy=0;" edge="1" parent="PgWZOQR5m6sQphYpGkv8-1" target="KHZRQKS00LLV6VtBtWU2-63">
          <mxGeometry relative="1" as="geometry">
            <mxPoint x="-2887" y="1362" as="targetPoint" />
            <mxPoint x="-2757" y="1234.5" as="sourcePoint" />
            <Array as="points">
              <mxPoint x="-2847" y="1235" />
              <mxPoint x="-2847" y="1272" />
            </Array>
          </mxGeometry>
        </mxCell>
        <mxCell id="KHZRQKS00LLV6VtBtWU2-71" value="&lt;font style=&quot;font-size: 14px;&quot;&gt;requester&lt;/font&gt;" style="edgeLabel;html=1;align=center;verticalAlign=middle;resizable=0;points=[];" vertex="1" connectable="0" parent="KHZRQKS00LLV6VtBtWU2-70">
          <mxGeometry x="-0.7009" y="-1" relative="1" as="geometry">
            <mxPoint x="-9" y="14" as="offset" />
          </mxGeometry>
        </mxCell>
        <mxCell id="KHZRQKS00LLV6VtBtWU2-72" value="&lt;font style=&quot;font-size: 14px;&quot;&gt;AUCoreOrganization&lt;/font&gt;" style="swimlane;whiteSpace=wrap;html=1;fillColor=#00b050;fontColor=#FFFFFF;" vertex="1" parent="PgWZOQR5m6sQphYpGkv8-1">
          <mxGeometry x="-3107" y="1047" width="180" height="130" as="geometry" />
        </mxCell>
        <mxCell id="KHZRQKS00LLV6VtBtWU2-73" value="&lt;font style=&quot;font-size: 14px;&quot;&gt;AUCorePractitionerRole&lt;/font&gt;" style="swimlane;whiteSpace=wrap;html=1;fillColor=#00b050;fontColor=#FFFFFF;" vertex="1" parent="PgWZOQR5m6sQphYpGkv8-1">
          <mxGeometry x="-1917" y="1207" width="180" height="130" as="geometry" />
        </mxCell>
        <mxCell id="KHZRQKS00LLV6VtBtWU2-74" value="&lt;font style=&quot;font-size: 14px;&quot;&gt;AUCorePatient&lt;/font&gt;" style="swimlane;whiteSpace=wrap;html=1;fillColor=#00b050;fontColor=#FFFFFF;" vertex="1" parent="PgWZOQR5m6sQphYpGkv8-1">
          <mxGeometry x="-1917" y="1047" width="180" height="130" as="geometry" />
        </mxCell>
        <mxCell id="KHZRQKS00LLV6VtBtWU2-75" value="&lt;font style=&quot;font-size: 24px;&quot;&gt;CommunicationRequest&lt;/font&gt;" style="text;html=1;align=center;verticalAlign=middle;resizable=0;points=[];autosize=1;strokeColor=none;fillColor=none;" vertex="1" parent="PgWZOQR5m6sQphYpGkv8-1">
          <mxGeometry x="-2583" y="920" width="280" height="40" as="geometry" />
        </mxCell>
        <mxCell id="KHZRQKS00LLV6VtBtWU2-76" value="" style="edgeStyle=orthogonalEdgeStyle;rounded=0;orthogonalLoop=1;jettySize=auto;html=1;exitX=1;exitY=0.25;exitDx=0;exitDy=0;" edge="1" parent="PgWZOQR5m6sQphYpGkv8-1" source="KHZRQKS00LLV6VtBtWU2-88">
          <mxGeometry relative="1" as="geometry">
            <mxPoint x="-1917" y="1090" as="targetPoint" />
            <Array as="points">
              <mxPoint x="-2007" y="1090" />
              <mxPoint x="-2007" y="1090" />
            </Array>
            <mxPoint x="-2127" y="1075" as="sourcePoint" />
          </mxGeometry>
        </mxCell>
        <mxCell id="KHZRQKS00LLV6VtBtWU2-77" value="&lt;font&gt;subject&lt;/font&gt;" style="edgeLabel;html=1;align=center;verticalAlign=middle;resizable=0;points=[];fontSize=14;" vertex="1" connectable="0" parent="KHZRQKS00LLV6VtBtWU2-76">
          <mxGeometry x="-0.7813" y="1" relative="1" as="geometry">
            <mxPoint x="62" y="-11" as="offset" />
          </mxGeometry>
        </mxCell>
        <mxCell id="KHZRQKS00LLV6VtBtWU2-78" value="&lt;i&gt;&lt;font style=&quot;font-size: 14px;&quot;&gt;AU eRequesting Diagnostic Request&lt;/font&gt;&lt;/i&gt;" style="swimlane;whiteSpace=wrap;html=1;startSize=23;fillColor=#00B0F0;fontColor=#FFFFFF;strokeColor=#000000;dashed=1;" vertex="1" parent="PgWZOQR5m6sQphYpGkv8-1">
          <mxGeometry x="-2867" y="1385" width="510" height="210" as="geometry" />
        </mxCell>
        <mxCell id="KHZRQKS00LLV6VtBtWU2-79" value="&lt;font style=&quot;font-size: 14px;&quot;&gt;Pathology Request&lt;/font&gt;" style="swimlane;whiteSpace=wrap;html=1;fillColor=#00B0F0;fontColor=#FFFFFF;startSize=25;verticalAlign=middle;" vertex="1" parent="KHZRQKS00LLV6VtBtWU2-78">
          <mxGeometry x="280" y="45" width="210" height="144" as="geometry" />
        </mxCell>
        <mxCell id="KHZRQKS00LLV6VtBtWU2-80" value="&lt;font style=&quot;font-size: 14px;&quot;&gt;Imaging Request&lt;/font&gt;" style="swimlane;whiteSpace=wrap;html=1;fillColor=#00B0F0;fontColor=#FFFFFF;startSize=25;" vertex="1" parent="KHZRQKS00LLV6VtBtWU2-78">
          <mxGeometry x="20" y="45" width="210" height="144" as="geometry" />
        </mxCell>
        <mxCell id="KHZRQKS00LLV6VtBtWU2-81" value="&lt;font style=&quot;font-size: 14px;&quot;&gt;AUCorePractitioner&lt;/font&gt;" style="swimlane;whiteSpace=wrap;html=1;fillColor=#00b050;fontColor=#FFFFFF;" vertex="1" parent="PgWZOQR5m6sQphYpGkv8-1">
          <mxGeometry x="-3107" y="1397" width="180" height="130" as="geometry" />
        </mxCell>
        <mxCell id="KHZRQKS00LLV6VtBtWU2-82" value="&lt;font style=&quot;font-size: 14px;&quot;&gt;AUCorePractitioner&lt;/font&gt;" style="swimlane;whiteSpace=wrap;html=1;fillColor=#00b050;fontColor=#FFFFFF;startSize=23;" vertex="1" parent="PgWZOQR5m6sQphYpGkv8-1">
          <mxGeometry x="-1917" y="1397" width="180" height="130" as="geometry" />
        </mxCell>
        <mxCell id="KHZRQKS00LLV6VtBtWU2-83" style="edgeStyle=orthogonalEdgeStyle;rounded=0;orthogonalLoop=1;jettySize=auto;html=1;" edge="1" parent="PgWZOQR5m6sQphYpGkv8-1" source="KHZRQKS00LLV6VtBtWU2-73">
          <mxGeometry relative="1" as="geometry">
            <mxPoint x="-1827" y="1397" as="targetPoint" />
          </mxGeometry>
        </mxCell>
        <mxCell id="KHZRQKS00LLV6VtBtWU2-84" value="&lt;font&gt;practitioner&lt;/font&gt;" style="edgeLabel;html=1;align=center;verticalAlign=middle;resizable=0;points=[];fontSize=14;" vertex="1" connectable="0" parent="KHZRQKS00LLV6VtBtWU2-83">
          <mxGeometry x="-0.1976" y="2" relative="1" as="geometry">
            <mxPoint x="38" y="4" as="offset" />
          </mxGeometry>
        </mxCell>
        <mxCell id="KHZRQKS00LLV6VtBtWU2-85" style="edgeStyle=orthogonalEdgeStyle;rounded=0;orthogonalLoop=1;jettySize=auto;html=1;entryX=0.25;entryY=0;entryDx=0;entryDy=0;" edge="1" parent="PgWZOQR5m6sQphYpGkv8-1" target="KHZRQKS00LLV6VtBtWU2-78">
          <mxGeometry relative="1" as="geometry">
            <mxPoint x="-2607" y="1315" as="sourcePoint" />
            <Array as="points">
              <mxPoint x="-2607" y="1345" />
              <mxPoint x="-2739" y="1345" />
            </Array>
          </mxGeometry>
        </mxCell>
        <mxCell id="KHZRQKS00LLV6VtBtWU2-86" value="about" style="edgeLabel;html=1;align=center;verticalAlign=middle;resizable=0;points=[];fontSize=14;" vertex="1" connectable="0" parent="KHZRQKS00LLV6VtBtWU2-85">
          <mxGeometry x="-0.113" y="-2" relative="1" as="geometry">
            <mxPoint x="55" y="13" as="offset" />
          </mxGeometry>
        </mxCell>
        <mxCell id="KHZRQKS00LLV6VtBtWU2-87" style="edgeStyle=orthogonalEdgeStyle;rounded=0;orthogonalLoop=1;jettySize=auto;html=1;entryX=0.75;entryY=0;entryDx=0;entryDy=0;" edge="1" parent="PgWZOQR5m6sQphYpGkv8-1" target="KHZRQKS00LLV6VtBtWU2-78">
          <mxGeometry relative="1" as="geometry">
            <mxPoint x="-2607" y="1315" as="sourcePoint" />
            <Array as="points">
              <mxPoint x="-2607" y="1315" />
              <mxPoint x="-2607" y="1345" />
              <mxPoint x="-2484" y="1345" />
            </Array>
          </mxGeometry>
        </mxCell>
        <mxCell id="KHZRQKS00LLV6VtBtWU2-88" value="&lt;i&gt;&lt;font style=&quot;font-size: 14px;&quot;&gt;AU eRequesting CommunicationRequest&lt;/font&gt;&lt;/i&gt;" style="swimlane;whiteSpace=wrap;html=1;startSize=23;fillColor=#00B0F0;fontColor=#FFFFFF;dashed=1;" vertex="1" parent="PgWZOQR5m6sQphYpGkv8-1">
          <mxGeometry x="-2759" y="1015" width="632" height="300" as="geometry" />
        </mxCell>
        <mxCell id="KHZRQKS00LLV6VtBtWU2-89" value="&lt;font style=&quot;font-size: 14px;&quot;&gt;CommunicationRequest Urgent Provider&lt;/font&gt;" style="swimlane;whiteSpace=wrap;html=1;fillColor=#00b0f0;strokeColor=#36393d;fontColor=#FFFFFF;startSize=40;fontSize=12;verticalAlign=bottom;horizontal=1;" vertex="1" parent="KHZRQKS00LLV6VtBtWU2-88">
          <mxGeometry x="219" y="90" width="180" height="130" as="geometry" />
        </mxCell>
        <mxCell id="KHZRQKS00LLV6VtBtWU2-90" value="&lt;font style=&quot;font-size: 14px;&quot;&gt;CommunicationRequest CopyTo&lt;/font&gt;" style="swimlane;whiteSpace=wrap;html=1;fillColor=#00b0f0;strokeColor=#36393d;fontColor=#FFFFFF;startSize=40;fontSize=12;verticalAlign=bottom;horizontal=1;" vertex="1" parent="KHZRQKS00LLV6VtBtWU2-88">
          <mxGeometry x="20" y="90" width="180" height="130" as="geometry" />
        </mxCell>
        <mxCell id="KHZRQKS00LLV6VtBtWU2-91" value="&lt;font style=&quot;font-size: 14px;&quot;&gt;CommunicationRequest Patient&lt;/font&gt;" style="swimlane;whiteSpace=wrap;html=1;fillColor=#00b0f0;strokeColor=#36393d;fontColor=#FFFFFF;startSize=40;fontSize=12;verticalAlign=bottom;horizontal=1;" vertex="1" parent="KHZRQKS00LLV6VtBtWU2-88">
          <mxGeometry x="418" y="90" width="180" height="130" as="geometry" />
        </mxCell>
        <mxCell id="KHZRQKS00LLV6VtBtWU2-92" style="edgeStyle=orthogonalEdgeStyle;rounded=0;orthogonalLoop=1;jettySize=auto;html=1;entryX=0.5;entryY=0;entryDx=0;entryDy=0;exitX=0.5;exitY=0;exitDx=0;exitDy=0;" edge="1" parent="PgWZOQR5m6sQphYpGkv8-1" target="KHZRQKS00LLV6VtBtWU2-74" source="KHZRQKS00LLV6VtBtWU2-91">
          <mxGeometry relative="1" as="geometry">
            <mxPoint x="-2439" y="1277" as="sourcePoint" />
            <mxPoint x="-1789" y="1517" as="targetPoint" />
            <Array as="points">
              <mxPoint x="-2251" y="990" />
              <mxPoint x="-1827" y="990" />
            </Array>
          </mxGeometry>
        </mxCell>
        <mxCell id="KHZRQKS00LLV6VtBtWU2-94" style="edgeStyle=orthogonalEdgeStyle;rounded=0;orthogonalLoop=1;jettySize=auto;html=1;entryX=0.5;entryY=0;entryDx=0;entryDy=0;exitX=0.5;exitY=0;exitDx=0;exitDy=0;" edge="1" parent="PgWZOQR5m6sQphYpGkv8-1" source="KHZRQKS00LLV6VtBtWU2-91" target="KHZRQKS00LLV6VtBtWU2-72">
          <mxGeometry relative="1" as="geometry">
            <mxPoint x="-2439" y="1277" as="sourcePoint" />
            <Array as="points">
              <mxPoint x="-2251" y="990" />
              <mxPoint x="-3017" y="990" />
            </Array>
          </mxGeometry>
        </mxCell>
        <mxCell id="KHZRQKS00LLV6VtBtWU2-95" value="requester" style="edgeLabel;html=1;align=center;verticalAlign=middle;resizable=0;points=[];fontSize=14;" vertex="1" connectable="0" parent="KHZRQKS00LLV6VtBtWU2-94">
          <mxGeometry x="-0.8628" y="-1" relative="1" as="geometry">
            <mxPoint x="-1" y="-61" as="offset" />
          </mxGeometry>
        </mxCell>
        <mxCell id="KHZRQKS00LLV6VtBtWU2-96" style="edgeStyle=orthogonalEdgeStyle;rounded=0;orthogonalLoop=1;jettySize=auto;html=1;entryX=0;entryY=0.75;entryDx=0;entryDy=0;exitX=0.75;exitY=0;exitDx=0;exitDy=0;jumpStyle=arc;" edge="1" parent="PgWZOQR5m6sQphYpGkv8-1" source="KHZRQKS00LLV6VtBtWU2-90" target="KHZRQKS00LLV6VtBtWU2-74">
          <mxGeometry relative="1" as="geometry">
            <Array as="points">
              <mxPoint x="-2604" y="1075" />
              <mxPoint x="-2141" y="1075" />
              <mxPoint x="-2141" y="1145" />
            </Array>
          </mxGeometry>
        </mxCell>
        <mxCell id="KHZRQKS00LLV6VtBtWU2-97" value="recipient" style="edgeLabel;html=1;align=center;verticalAlign=middle;resizable=0;points=[];fontSize=14;" vertex="1" connectable="0" parent="KHZRQKS00LLV6VtBtWU2-96">
          <mxGeometry x="-0.6129" relative="1" as="geometry">
            <mxPoint x="463" y="60" as="offset" />
          </mxGeometry>
        </mxCell>
        <mxCell id="KHZRQKS00LLV6VtBtWU2-100" style="edgeStyle=orthogonalEdgeStyle;rounded=0;orthogonalLoop=1;jettySize=auto;html=1;entryX=0;entryY=0.5;entryDx=0;entryDy=0;exitX=0.25;exitY=1;exitDx=0;exitDy=0;jumpStyle=arc;" edge="1" parent="PgWZOQR5m6sQphYpGkv8-1" source="KHZRQKS00LLV6VtBtWU2-90" target="KHZRQKS00LLV6VtBtWU2-73">
          <mxGeometry relative="1" as="geometry" />
        </mxCell>
        <mxCell id="KHZRQKS00LLV6VtBtWU2-101" style="edgeStyle=orthogonalEdgeStyle;rounded=0;orthogonalLoop=1;jettySize=auto;html=1;entryX=0;entryY=0.5;entryDx=0;entryDy=0;exitX=0.5;exitY=1;exitDx=0;exitDy=0;jumpStyle=arc;" edge="1" parent="PgWZOQR5m6sQphYpGkv8-1" source="KHZRQKS00LLV6VtBtWU2-89" target="KHZRQKS00LLV6VtBtWU2-73">
          <mxGeometry relative="1" as="geometry" />
        </mxCell>
        <mxCell id="KHZRQKS00LLV6VtBtWU2-102" value="recipient" style="edgeLabel;html=1;align=center;verticalAlign=middle;resizable=0;points=[];fontSize=14;" vertex="1" connectable="0" parent="KHZRQKS00LLV6VtBtWU2-101">
          <mxGeometry x="-0.489" relative="1" as="geometry">
            <mxPoint x="323" y="-13" as="offset" />
          </mxGeometry>
        </mxCell>
        <mxCell id="KHZRQKS00LLV6VtBtWU2-105" style="edgeStyle=orthogonalEdgeStyle;rounded=0;orthogonalLoop=1;jettySize=auto;html=1;entryX=0;entryY=0.75;entryDx=0;entryDy=0;exitX=1;exitY=0.75;exitDx=0;exitDy=0;" edge="1" parent="PgWZOQR5m6sQphYpGkv8-1" source="KHZRQKS00LLV6VtBtWU2-91" target="KHZRQKS00LLV6VtBtWU2-74">
          <mxGeometry relative="1" as="geometry">
            <Array as="points">
              <mxPoint x="-2077" y="1203" />
              <mxPoint x="-2077" y="1145" />
            </Array>
          </mxGeometry>
        </mxCell>
        <mxCell id="KHZRQKS00LLV6VtBtWU2-117" style="edgeStyle=orthogonalEdgeStyle;rounded=0;orthogonalLoop=1;jettySize=auto;html=1;" edge="1" parent="PgWZOQR5m6sQphYpGkv8-1" source="KHZRQKS00LLV6VtBtWU2-115">
          <mxGeometry relative="1" as="geometry">
            <mxPoint x="-2237" y="1315" as="targetPoint" />
          </mxGeometry>
        </mxCell>
        <mxCell id="KHZRQKS00LLV6VtBtWU2-118" value="focus" style="edgeLabel;html=1;align=center;verticalAlign=middle;resizable=0;points=[];fontSize=14;" vertex="1" connectable="0" parent="KHZRQKS00LLV6VtBtWU2-117">
          <mxGeometry x="-0.0388" y="5" relative="1" as="geometry">
            <mxPoint x="5" as="offset" />
          </mxGeometry>
        </mxCell>
        <mxCell id="KHZRQKS00LLV6VtBtWU2-115" value="&lt;font style=&quot;font-size: 14px;&quot;&gt;Task Communication Request&lt;/font&gt;" style="swimlane;whiteSpace=wrap;html=1;startSize=30;fillColor=#00B0F0;fontColor=#FFFFFF;" vertex="1" parent="PgWZOQR5m6sQphYpGkv8-1">
          <mxGeometry x="-2327" y="1425" width="180" height="130" as="geometry" />
        </mxCell>
        <mxCell id="KHZRQKS00LLV6VtBtWU2-116" value="&lt;font style=&quot;font-size: 14px;&quot;&gt;Task Group&lt;/font&gt;" style="swimlane;whiteSpace=wrap;html=1;startSize=30;fillColor=#00B0F0;fontColor=#FFFFFF;" vertex="1" parent="PgWZOQR5m6sQphYpGkv8-1">
          <mxGeometry x="-2127" y="1425" width="180" height="130" as="geometry" />
        </mxCell>
      </root>
    </mxGraphModel>
  </diagram>
  <diagram id="F22YYThAHMZJYqFLGd7d" name="Task Group">
    <mxGraphModel dx="1674" dy="772" grid="1" gridSize="10" guides="1" tooltips="1" connect="1" arrows="1" fold="1" page="1" pageScale="1" pageWidth="827" pageHeight="1169" math="0" shadow="0">
      <root>
        <mxCell id="0" />
        <mxCell id="1" parent="0" />
        <mxCell id="LcmKjkGX3fzQXDtaxotr-3" value="&lt;font style=&quot;font-size: 14px;&quot;&gt;Diagnostic Request&lt;/font&gt;" style="rounded=1;arcSize=10;whiteSpace=wrap;html=1;align=center;fillColor=#00B0F0;fontColor=#FFFFFF;" parent="1" vertex="1">
          <mxGeometry x="639" y="40" width="156" height="90" as="geometry" />
        </mxCell>
        <mxCell id="YpbUC5Vylgw_9YAdpPXQ-1" style="edgeStyle=orthogonalEdgeStyle;rounded=0;orthogonalLoop=1;jettySize=auto;html=1;" parent="1" source="LcmKjkGX3fzQXDtaxotr-4" target="LcmKjkGX3fzQXDtaxotr-3" edge="1">
          <mxGeometry relative="1" as="geometry" />
        </mxCell>
        <mxCell id="YpbUC5Vylgw_9YAdpPXQ-2" value="&lt;font style=&quot;font-size: 14px;&quot;&gt;f&lt;/font&gt;&lt;font style=&quot;font-size: 14px;&quot;&gt;ocus&lt;/font&gt;" style="edgeLabel;html=1;align=center;verticalAlign=middle;resizable=0;points=[];" parent="YpbUC5Vylgw_9YAdpPXQ-1" vertex="1" connectable="0">
          <mxGeometry x="-0.3077" y="2" relative="1" as="geometry">
            <mxPoint x="-28" y="17" as="offset" />
          </mxGeometry>
        </mxCell>
        <mxCell id="73efMX9YKEyVFzS9LIF3-1" style="edgeStyle=orthogonalEdgeStyle;rounded=0;orthogonalLoop=1;jettySize=auto;html=1;entryX=0.5;entryY=0;entryDx=0;entryDy=0;" parent="1" source="LcmKjkGX3fzQXDtaxotr-4" target="LcmKjkGX3fzQXDtaxotr-5" edge="1">
          <mxGeometry relative="1" as="geometry">
            <mxPoint x="262" y="195" as="targetPoint" />
            <Array as="points">
              <mxPoint x="110" y="85" />
            </Array>
          </mxGeometry>
        </mxCell>
        <mxCell id="73efMX9YKEyVFzS9LIF3-2" value="&lt;font style=&quot;font-size: 14px;&quot;&gt;partOf&lt;/font&gt;" style="edgeLabel;html=1;align=center;verticalAlign=middle;resizable=0;points=[];" parent="73efMX9YKEyVFzS9LIF3-1" vertex="1" connectable="0">
          <mxGeometry x="-0.1948" y="-3" relative="1" as="geometry">
            <mxPoint x="86" y="18" as="offset" />
          </mxGeometry>
        </mxCell>
        <mxCell id="LcmKjkGX3fzQXDtaxotr-4" value="&lt;font style=&quot;font-size: 14px;&quot;&gt;Task&lt;/font&gt;&lt;div&gt;&lt;font style=&quot;font-size: 14px;&quot;&gt;Diagnostic Request&lt;/font&gt;&lt;/div&gt;" style="rounded=1;arcSize=10;whiteSpace=wrap;html=1;align=center;fillColor=#00B0F0;fontColor=#FFFFFF;" parent="1" vertex="1">
          <mxGeometry x="332" y="40" width="156" height="90" as="geometry" />
        </mxCell>
        <mxCell id="LcmKjkGX3fzQXDtaxotr-5" value="&lt;font style=&quot;font-size: 14px;&quot;&gt;Task Group&lt;/font&gt;" style="rounded=1;arcSize=10;whiteSpace=wrap;html=1;align=center;fillColor=#ffe6cc;strokeColor=#d79b00;" parent="1" vertex="1">
          <mxGeometry x="32" y="150" width="156" height="90" as="geometry" />
        </mxCell>
        <mxCell id="73efMX9YKEyVFzS9LIF3-4" value="&lt;font style=&quot;font-size: 14px;&quot;&gt;Diagnostic Request&lt;/font&gt;" style="rounded=1;arcSize=10;whiteSpace=wrap;html=1;align=center;fillColor=#00B0F0;fontColor=#FFFFFF;" parent="1" vertex="1">
          <mxGeometry x="639" y="150" width="156" height="90" as="geometry" />
        </mxCell>
        <mxCell id="73efMX9YKEyVFzS9LIF3-5" style="edgeStyle=orthogonalEdgeStyle;rounded=0;orthogonalLoop=1;jettySize=auto;html=1;" parent="1" source="73efMX9YKEyVFzS9LIF3-8" target="73efMX9YKEyVFzS9LIF3-4" edge="1">
          <mxGeometry relative="1" as="geometry" />
        </mxCell>
        <mxCell id="73efMX9YKEyVFzS9LIF3-6" value="&lt;font style=&quot;font-size: 14px;&quot;&gt;f&lt;/font&gt;&lt;font style=&quot;font-size: 14px;&quot;&gt;ocus&lt;/font&gt;" style="edgeLabel;html=1;align=center;verticalAlign=middle;resizable=0;points=[];" parent="73efMX9YKEyVFzS9LIF3-5" vertex="1" connectable="0">
          <mxGeometry x="-0.3077" y="2" relative="1" as="geometry">
            <mxPoint x="-28" y="17" as="offset" />
          </mxGeometry>
        </mxCell>
        <mxCell id="73efMX9YKEyVFzS9LIF3-7" value="&lt;font style=&quot;font-size: 14px;&quot;&gt;partOf&lt;/font&gt;" style="edgeLabel;html=1;align=center;verticalAlign=middle;resizable=0;points=[];" parent="1" vertex="1" connectable="0">
          <mxGeometry x="302" y="210" as="geometry" />
        </mxCell>
        <mxCell id="73efMX9YKEyVFzS9LIF3-14" style="edgeStyle=orthogonalEdgeStyle;rounded=0;orthogonalLoop=1;jettySize=auto;html=1;" parent="1" source="73efMX9YKEyVFzS9LIF3-8" target="LcmKjkGX3fzQXDtaxotr-5" edge="1">
          <mxGeometry relative="1" as="geometry" />
        </mxCell>
        <mxCell id="73efMX9YKEyVFzS9LIF3-8" value="&lt;font style=&quot;font-size: 14px;&quot;&gt;Task&lt;/font&gt;&lt;div&gt;&lt;font style=&quot;font-size: 14px;&quot;&gt;Diagnostic Request&lt;/font&gt;&lt;/div&gt;" style="rounded=1;arcSize=10;whiteSpace=wrap;html=1;align=center;fillColor=#00B0F0;fontColor=#FFFFFF;" parent="1" vertex="1">
          <mxGeometry x="332" y="150" width="156" height="90" as="geometry" />
        </mxCell>
        <mxCell id="73efMX9YKEyVFzS9LIF3-9" value="&lt;font style=&quot;font-size: 14px;&quot;&gt;Diagnostic Request&lt;/font&gt;" style="rounded=1;arcSize=10;whiteSpace=wrap;html=1;align=center;fillColor=#00B0F0;fontColor=#FFFFFF;" parent="1" vertex="1">
          <mxGeometry x="639" y="260" width="156" height="90" as="geometry" />
        </mxCell>
        <mxCell id="73efMX9YKEyVFzS9LIF3-10" style="edgeStyle=orthogonalEdgeStyle;rounded=0;orthogonalLoop=1;jettySize=auto;html=1;" parent="1" source="73efMX9YKEyVFzS9LIF3-13" target="73efMX9YKEyVFzS9LIF3-9" edge="1">
          <mxGeometry relative="1" as="geometry" />
        </mxCell>
        <mxCell id="73efMX9YKEyVFzS9LIF3-11" value="&lt;font style=&quot;font-size: 14px;&quot;&gt;f&lt;/font&gt;&lt;font style=&quot;font-size: 14px;&quot;&gt;ocus&lt;/font&gt;" style="edgeLabel;html=1;align=center;verticalAlign=middle;resizable=0;points=[];" parent="73efMX9YKEyVFzS9LIF3-10" vertex="1" connectable="0">
          <mxGeometry x="-0.3077" y="2" relative="1" as="geometry">
            <mxPoint x="-28" y="17" as="offset" />
          </mxGeometry>
        </mxCell>
        <mxCell id="73efMX9YKEyVFzS9LIF3-12" value="&lt;font style=&quot;font-size: 14px;&quot;&gt;partOf&lt;/font&gt;" style="edgeLabel;html=1;align=center;verticalAlign=middle;resizable=0;points=[];" parent="1" vertex="1" connectable="0">
          <mxGeometry x="302" y="320" as="geometry" />
        </mxCell>
        <mxCell id="73efMX9YKEyVFzS9LIF3-15" style="edgeStyle=orthogonalEdgeStyle;rounded=0;orthogonalLoop=1;jettySize=auto;html=1;entryX=0.5;entryY=1;entryDx=0;entryDy=0;" parent="1" source="73efMX9YKEyVFzS9LIF3-13" target="LcmKjkGX3fzQXDtaxotr-5" edge="1">
          <mxGeometry relative="1" as="geometry">
            <Array as="points">
              <mxPoint x="110" y="305" />
            </Array>
          </mxGeometry>
        </mxCell>
        <mxCell id="73efMX9YKEyVFzS9LIF3-13" value="&lt;font style=&quot;font-size: 14px;&quot;&gt;Task&lt;/font&gt;&lt;div&gt;&lt;font style=&quot;font-size: 14px;&quot;&gt;Diagnostic Request&lt;/font&gt;&lt;/div&gt;" style="rounded=1;arcSize=10;whiteSpace=wrap;html=1;align=center;fillColor=#00B0F0;fontColor=#FFFFFF;" parent="1" vertex="1">
          <mxGeometry x="332" y="260" width="156" height="90" as="geometry" />
        </mxCell>
      </root>
    </mxGraphModel>
  </diagram>
  <diagram name="Common Supporting Info Resources" id="emgsCZJc7ZNCbFIG5mNi">
    <mxGraphModel dx="1667" dy="777" grid="1" gridSize="10" guides="1" tooltips="1" connect="1" arrows="1" fold="1" page="1" pageScale="1" pageWidth="827" pageHeight="1169" math="0" shadow="0">
      <root>
        <mxCell id="kIXAmz7TP9O-llPcfjuH-0" />
        <mxCell id="kIXAmz7TP9O-llPcfjuH-1" parent="kIXAmz7TP9O-llPcfjuH-0" />
        <mxCell id="kIXAmz7TP9O-llPcfjuH-2" style="edgeStyle=orthogonalEdgeStyle;rounded=0;orthogonalLoop=1;jettySize=auto;html=1;entryX=0;entryY=0.5;entryDx=0;entryDy=0;" parent="kIXAmz7TP9O-llPcfjuH-1" source="kIXAmz7TP9O-llPcfjuH-4" target="kIXAmz7TP9O-llPcfjuH-29" edge="1">
          <mxGeometry relative="1" as="geometry">
            <Array as="points">
              <mxPoint x="910" y="85" />
              <mxPoint x="910" y="195" />
            </Array>
          </mxGeometry>
        </mxCell>
        <mxCell id="kIXAmz7TP9O-llPcfjuH-3" value="&lt;span style=&quot;font-size: 14px;&quot;&gt;supportingInfo&lt;/span&gt;" style="edgeLabel;html=1;align=center;verticalAlign=middle;resizable=0;points=[];" parent="kIXAmz7TP9O-llPcfjuH-2" vertex="1" connectable="0">
          <mxGeometry x="-0.5426" relative="1" as="geometry">
            <mxPoint x="-6" y="15" as="offset" />
          </mxGeometry>
        </mxCell>
        <mxCell id="kIXAmz7TP9O-llPcfjuH-4" value="&lt;font style=&quot;font-size: 14px;&quot;&gt;Diagnostic Request&lt;/font&gt;" style="rounded=1;arcSize=10;whiteSpace=wrap;html=1;align=center;fillColor=#00B0F0;fontColor=#FFFFFF;" parent="kIXAmz7TP9O-llPcfjuH-1" vertex="1">
          <mxGeometry x="639" y="40" width="156" height="90" as="geometry" />
        </mxCell>
        <mxCell id="kIXAmz7TP9O-llPcfjuH-5" style="edgeStyle=orthogonalEdgeStyle;rounded=0;orthogonalLoop=1;jettySize=auto;html=1;" parent="kIXAmz7TP9O-llPcfjuH-1" source="kIXAmz7TP9O-llPcfjuH-9" target="kIXAmz7TP9O-llPcfjuH-4" edge="1">
          <mxGeometry relative="1" as="geometry" />
        </mxCell>
        <mxCell id="kIXAmz7TP9O-llPcfjuH-6" value="&lt;font style=&quot;font-size: 14px;&quot;&gt;f&lt;/font&gt;&lt;font style=&quot;font-size: 14px;&quot;&gt;ocus&lt;/font&gt;" style="edgeLabel;html=1;align=center;verticalAlign=middle;resizable=0;points=[];" parent="kIXAmz7TP9O-llPcfjuH-5" vertex="1" connectable="0">
          <mxGeometry x="-0.3077" y="2" relative="1" as="geometry">
            <mxPoint x="-28" y="17" as="offset" />
          </mxGeometry>
        </mxCell>
        <mxCell id="kIXAmz7TP9O-llPcfjuH-7" style="edgeStyle=orthogonalEdgeStyle;rounded=0;orthogonalLoop=1;jettySize=auto;html=1;entryX=1;entryY=0.5;entryDx=0;entryDy=0;" parent="kIXAmz7TP9O-llPcfjuH-1" source="kIXAmz7TP9O-llPcfjuH-9" target="kIXAmz7TP9O-llPcfjuH-12" edge="1">
          <mxGeometry relative="1" as="geometry">
            <mxPoint x="262" y="195" as="targetPoint" />
            <Array as="points">
              <mxPoint x="240" y="85" />
              <mxPoint x="240" y="195" />
            </Array>
          </mxGeometry>
        </mxCell>
        <mxCell id="kIXAmz7TP9O-llPcfjuH-8" value="&lt;font style=&quot;font-size: 14px;&quot;&gt;partOf&lt;/font&gt;" style="edgeLabel;html=1;align=center;verticalAlign=middle;resizable=0;points=[];" parent="kIXAmz7TP9O-llPcfjuH-7" vertex="1" connectable="0">
          <mxGeometry x="-0.1948" y="-3" relative="1" as="geometry">
            <mxPoint x="63" y="5" as="offset" />
          </mxGeometry>
        </mxCell>
        <mxCell id="kIXAmz7TP9O-llPcfjuH-9" value="&lt;font style=&quot;font-size: 14px;&quot;&gt;Task&lt;/font&gt;&lt;div&gt;&lt;font style=&quot;font-size: 14px;&quot;&gt;Diagnostic Request&lt;/font&gt;&lt;/div&gt;" style="rounded=1;arcSize=10;whiteSpace=wrap;html=1;align=center;fillColor=#00B0F0;fontColor=#FFFFFF;" parent="kIXAmz7TP9O-llPcfjuH-1" vertex="1">
          <mxGeometry x="332" y="40" width="156" height="90" as="geometry" />
        </mxCell>
        <mxCell id="kIXAmz7TP9O-llPcfjuH-12" value="&lt;font style=&quot;font-size: 14px;&quot;&gt;Task Group&lt;/font&gt;" style="rounded=1;arcSize=10;whiteSpace=wrap;html=1;align=center;fillColor=#ffe6cc;strokeColor=#d79b00;" parent="kIXAmz7TP9O-llPcfjuH-1" vertex="1">
          <mxGeometry x="32" y="150" width="156" height="90" as="geometry" />
        </mxCell>
        <mxCell id="kIXAmz7TP9O-llPcfjuH-13" style="edgeStyle=orthogonalEdgeStyle;rounded=0;orthogonalLoop=1;jettySize=auto;html=1;" parent="kIXAmz7TP9O-llPcfjuH-1" source="kIXAmz7TP9O-llPcfjuH-15" target="kIXAmz7TP9O-llPcfjuH-29" edge="1">
          <mxGeometry relative="1" as="geometry" />
        </mxCell>
        <mxCell id="kIXAmz7TP9O-llPcfjuH-14" value="&lt;font style=&quot;font-size: 14px;&quot;&gt;supportingInfo&lt;/font&gt;" style="edgeLabel;html=1;align=center;verticalAlign=middle;resizable=0;points=[];" parent="kIXAmz7TP9O-llPcfjuH-13" vertex="1" connectable="0">
          <mxGeometry x="-0.5665" y="-3" relative="1" as="geometry">
            <mxPoint x="21" y="12" as="offset" />
          </mxGeometry>
        </mxCell>
        <mxCell id="kIXAmz7TP9O-llPcfjuH-15" value="&lt;font style=&quot;font-size: 14px;&quot;&gt;Diagnostic Request&lt;/font&gt;" style="rounded=1;arcSize=10;whiteSpace=wrap;html=1;align=center;fillColor=#00B0F0;fontColor=#FFFFFF;" parent="kIXAmz7TP9O-llPcfjuH-1" vertex="1">
          <mxGeometry x="639" y="150" width="156" height="90" as="geometry" />
        </mxCell>
        <mxCell id="kIXAmz7TP9O-llPcfjuH-16" style="edgeStyle=orthogonalEdgeStyle;rounded=0;orthogonalLoop=1;jettySize=auto;html=1;" parent="kIXAmz7TP9O-llPcfjuH-1" source="kIXAmz7TP9O-llPcfjuH-20" target="kIXAmz7TP9O-llPcfjuH-15" edge="1">
          <mxGeometry relative="1" as="geometry" />
        </mxCell>
        <mxCell id="kIXAmz7TP9O-llPcfjuH-17" value="&lt;font style=&quot;font-size: 14px;&quot;&gt;f&lt;/font&gt;&lt;font style=&quot;font-size: 14px;&quot;&gt;ocus&lt;/font&gt;" style="edgeLabel;html=1;align=center;verticalAlign=middle;resizable=0;points=[];" parent="kIXAmz7TP9O-llPcfjuH-16" vertex="1" connectable="0">
          <mxGeometry x="-0.3077" y="2" relative="1" as="geometry">
            <mxPoint x="-28" y="17" as="offset" />
          </mxGeometry>
        </mxCell>
        <mxCell id="kIXAmz7TP9O-llPcfjuH-18" value="&lt;font style=&quot;font-size: 14px;&quot;&gt;partOf&lt;/font&gt;" style="edgeLabel;html=1;align=center;verticalAlign=middle;resizable=0;points=[];" parent="kIXAmz7TP9O-llPcfjuH-1" vertex="1" connectable="0">
          <mxGeometry x="302" y="210" as="geometry" />
        </mxCell>
        <mxCell id="kIXAmz7TP9O-llPcfjuH-19" style="edgeStyle=orthogonalEdgeStyle;rounded=0;orthogonalLoop=1;jettySize=auto;html=1;" parent="kIXAmz7TP9O-llPcfjuH-1" source="kIXAmz7TP9O-llPcfjuH-20" target="kIXAmz7TP9O-llPcfjuH-12" edge="1">
          <mxGeometry relative="1" as="geometry" />
        </mxCell>
        <mxCell id="kIXAmz7TP9O-llPcfjuH-20" value="&lt;font style=&quot;font-size: 14px;&quot;&gt;Task&lt;/font&gt;&lt;div&gt;&lt;font style=&quot;font-size: 14px;&quot;&gt;Diagnostic Request&lt;/font&gt;&lt;/div&gt;" style="rounded=1;arcSize=10;whiteSpace=wrap;html=1;align=center;fillColor=#00B0F0;fontColor=#FFFFFF;" parent="kIXAmz7TP9O-llPcfjuH-1" vertex="1">
          <mxGeometry x="332" y="150" width="156" height="90" as="geometry" />
        </mxCell>
        <mxCell id="kIXAmz7TP9O-llPcfjuH-21" style="edgeStyle=orthogonalEdgeStyle;rounded=0;orthogonalLoop=1;jettySize=auto;html=1;entryX=0;entryY=0.5;entryDx=0;entryDy=0;" parent="kIXAmz7TP9O-llPcfjuH-1" source="kIXAmz7TP9O-llPcfjuH-23" target="kIXAmz7TP9O-llPcfjuH-29" edge="1">
          <mxGeometry relative="1" as="geometry">
            <Array as="points">
              <mxPoint x="910" y="305" />
              <mxPoint x="910" y="195" />
            </Array>
          </mxGeometry>
        </mxCell>
        <mxCell id="kIXAmz7TP9O-llPcfjuH-22" value="&lt;font style=&quot;font-size: 14px;&quot;&gt;supportingInfo&lt;/font&gt;" style="edgeLabel;html=1;align=center;verticalAlign=middle;resizable=0;points=[];" parent="kIXAmz7TP9O-llPcfjuH-21" vertex="1" connectable="0">
          <mxGeometry x="-0.5275" relative="1" as="geometry">
            <mxPoint x="-8" y="15" as="offset" />
          </mxGeometry>
        </mxCell>
        <mxCell id="kIXAmz7TP9O-llPcfjuH-23" value="&lt;font style=&quot;font-size: 14px;&quot;&gt;Diagnostic Request&lt;/font&gt;" style="rounded=1;arcSize=10;whiteSpace=wrap;html=1;align=center;fillColor=#00B0F0;fontColor=#FFFFFF;" parent="kIXAmz7TP9O-llPcfjuH-1" vertex="1">
          <mxGeometry x="639" y="260" width="156" height="90" as="geometry" />
        </mxCell>
        <mxCell id="kIXAmz7TP9O-llPcfjuH-24" style="edgeStyle=orthogonalEdgeStyle;rounded=0;orthogonalLoop=1;jettySize=auto;html=1;" parent="kIXAmz7TP9O-llPcfjuH-1" source="kIXAmz7TP9O-llPcfjuH-28" target="kIXAmz7TP9O-llPcfjuH-23" edge="1">
          <mxGeometry relative="1" as="geometry" />
        </mxCell>
        <mxCell id="kIXAmz7TP9O-llPcfjuH-25" value="&lt;font style=&quot;font-size: 14px;&quot;&gt;f&lt;/font&gt;&lt;font style=&quot;font-size: 14px;&quot;&gt;ocus&lt;/font&gt;" style="edgeLabel;html=1;align=center;verticalAlign=middle;resizable=0;points=[];" parent="kIXAmz7TP9O-llPcfjuH-24" vertex="1" connectable="0">
          <mxGeometry x="-0.3077" y="2" relative="1" as="geometry">
            <mxPoint x="-28" y="17" as="offset" />
          </mxGeometry>
        </mxCell>
        <mxCell id="kIXAmz7TP9O-llPcfjuH-26" value="&lt;font style=&quot;font-size: 14px;&quot;&gt;partOf&lt;/font&gt;" style="edgeLabel;html=1;align=center;verticalAlign=middle;resizable=0;points=[];" parent="kIXAmz7TP9O-llPcfjuH-1" vertex="1" connectable="0">
          <mxGeometry x="302" y="320" as="geometry" />
        </mxCell>
        <mxCell id="kIXAmz7TP9O-llPcfjuH-27" style="edgeStyle=orthogonalEdgeStyle;rounded=0;orthogonalLoop=1;jettySize=auto;html=1;entryX=1;entryY=0.5;entryDx=0;entryDy=0;" parent="kIXAmz7TP9O-llPcfjuH-1" source="kIXAmz7TP9O-llPcfjuH-28" target="kIXAmz7TP9O-llPcfjuH-12" edge="1">
          <mxGeometry relative="1" as="geometry">
            <Array as="points">
              <mxPoint x="240" y="305" />
              <mxPoint x="240" y="195" />
            </Array>
          </mxGeometry>
        </mxCell>
        <mxCell id="kIXAmz7TP9O-llPcfjuH-28" value="&lt;font style=&quot;font-size: 14px;&quot;&gt;Task&lt;/font&gt;&lt;div&gt;&lt;font style=&quot;font-size: 14px;&quot;&gt;Diagnostic Request&lt;/font&gt;&lt;/div&gt;" style="rounded=1;arcSize=10;whiteSpace=wrap;html=1;align=center;fillColor=#00B0F0;fontColor=#FFFFFF;" parent="kIXAmz7TP9O-llPcfjuH-1" vertex="1">
          <mxGeometry x="332" y="260" width="156" height="90" as="geometry" />
        </mxCell>
        <mxCell id="kIXAmz7TP9O-llPcfjuH-29" value="&lt;font style=&quot;font-size: 14px;&quot;&gt;Common Supporting Info Resources&lt;/font&gt;" style="rounded=1;arcSize=10;whiteSpace=wrap;html=1;align=center;fillColor=#ffe6cc;strokeColor=#d79b00;" parent="kIXAmz7TP9O-llPcfjuH-1" vertex="1">
          <mxGeometry x="950" y="150" width="156" height="90" as="geometry" />
        </mxCell>
      </root>
    </mxGraphModel>
  </diagram>
  <diagram name="Diagnostic Request Group" id="tTmvR_BwbW66miAKnXAr">
    <mxGraphModel dx="1667" dy="777" grid="1" gridSize="10" guides="1" tooltips="1" connect="1" arrows="1" fold="1" page="1" pageScale="1" pageWidth="827" pageHeight="1169" math="0" shadow="0">
      <root>
        <mxCell id="gD2A0KmRnHL1XULNX4CV-0" />
        <mxCell id="gD2A0KmRnHL1XULNX4CV-1" parent="gD2A0KmRnHL1XULNX4CV-0" />
        <mxCell id="gD2A0KmRnHL1XULNX4CV-2" style="edgeStyle=orthogonalEdgeStyle;rounded=0;orthogonalLoop=1;jettySize=auto;html=1;entryX=0;entryY=0.5;entryDx=0;entryDy=0;" parent="gD2A0KmRnHL1XULNX4CV-1" source="gD2A0KmRnHL1XULNX4CV-4" target="gD2A0KmRnHL1XULNX4CV-29" edge="1">
          <mxGeometry relative="1" as="geometry">
            <Array as="points">
              <mxPoint x="900" y="85" />
              <mxPoint x="900" y="195" />
            </Array>
          </mxGeometry>
        </mxCell>
        <mxCell id="gD2A0KmRnHL1XULNX4CV-3" value="&lt;font style=&quot;font-size: 14px;&quot;&gt;basedOn&lt;/font&gt;" style="edgeLabel;html=1;align=center;verticalAlign=middle;resizable=0;points=[];" parent="gD2A0KmRnHL1XULNX4CV-2" vertex="1" connectable="0">
          <mxGeometry x="-0.5426" relative="1" as="geometry">
            <mxPoint x="-29" y="15" as="offset" />
          </mxGeometry>
        </mxCell>
        <mxCell id="gD2A0KmRnHL1XULNX4CV-4" value="&lt;font style=&quot;font-size: 14px;&quot;&gt;Diagnostic Request&lt;/font&gt;" style="rounded=1;arcSize=10;whiteSpace=wrap;html=1;align=center;fillColor=#00B0F0;fontColor=#FFFFFF;" parent="gD2A0KmRnHL1XULNX4CV-1" vertex="1">
          <mxGeometry x="639" y="40" width="156" height="90" as="geometry" />
        </mxCell>
        <mxCell id="gD2A0KmRnHL1XULNX4CV-5" style="edgeStyle=orthogonalEdgeStyle;rounded=0;orthogonalLoop=1;jettySize=auto;html=1;" parent="gD2A0KmRnHL1XULNX4CV-1" source="gD2A0KmRnHL1XULNX4CV-9" target="gD2A0KmRnHL1XULNX4CV-4" edge="1">
          <mxGeometry relative="1" as="geometry" />
        </mxCell>
        <mxCell id="gD2A0KmRnHL1XULNX4CV-6" value="&lt;font style=&quot;font-size: 14px;&quot;&gt;f&lt;/font&gt;&lt;font style=&quot;font-size: 14px;&quot;&gt;ocus&lt;/font&gt;" style="edgeLabel;html=1;align=center;verticalAlign=middle;resizable=0;points=[];" parent="gD2A0KmRnHL1XULNX4CV-5" vertex="1" connectable="0">
          <mxGeometry x="-0.3077" y="2" relative="1" as="geometry">
            <mxPoint x="-28" y="17" as="offset" />
          </mxGeometry>
        </mxCell>
        <mxCell id="gD2A0KmRnHL1XULNX4CV-7" style="edgeStyle=orthogonalEdgeStyle;rounded=0;orthogonalLoop=1;jettySize=auto;html=1;entryX=1;entryY=0.5;entryDx=0;entryDy=0;" parent="gD2A0KmRnHL1XULNX4CV-1" source="gD2A0KmRnHL1XULNX4CV-9" target="gD2A0KmRnHL1XULNX4CV-12" edge="1">
          <mxGeometry relative="1" as="geometry">
            <mxPoint x="262" y="195" as="targetPoint" />
            <Array as="points">
              <mxPoint x="240" y="85" />
              <mxPoint x="240" y="195" />
            </Array>
          </mxGeometry>
        </mxCell>
        <mxCell id="gD2A0KmRnHL1XULNX4CV-8" value="&lt;font style=&quot;font-size: 14px;&quot;&gt;partOf&lt;/font&gt;" style="edgeLabel;html=1;align=center;verticalAlign=middle;resizable=0;points=[];" parent="gD2A0KmRnHL1XULNX4CV-7" vertex="1" connectable="0">
          <mxGeometry x="-0.1948" y="-3" relative="1" as="geometry">
            <mxPoint x="63" y="5" as="offset" />
          </mxGeometry>
        </mxCell>
        <mxCell id="gD2A0KmRnHL1XULNX4CV-9" value="&lt;font style=&quot;font-size: 14px;&quot;&gt;Task&lt;/font&gt;&lt;div&gt;&lt;font style=&quot;font-size: 14px;&quot;&gt;Diagnostic Request&lt;/font&gt;&lt;/div&gt;" style="rounded=1;arcSize=10;whiteSpace=wrap;html=1;align=center;fillColor=#00B0F0;fontColor=#FFFFFF;" parent="gD2A0KmRnHL1XULNX4CV-1" vertex="1">
          <mxGeometry x="332" y="40" width="156" height="90" as="geometry" />
        </mxCell>
        <mxCell id="gD2A0KmRnHL1XULNX4CV-12" value="&lt;font style=&quot;font-size: 14px;&quot;&gt;Task Group&lt;/font&gt;" style="rounded=1;arcSize=10;whiteSpace=wrap;html=1;align=center;fillColor=#ffe6cc;strokeColor=#d79b00;" parent="gD2A0KmRnHL1XULNX4CV-1" vertex="1">
          <mxGeometry x="32" y="150" width="156" height="90" as="geometry" />
        </mxCell>
        <mxCell id="gD2A0KmRnHL1XULNX4CV-13" style="edgeStyle=orthogonalEdgeStyle;rounded=0;orthogonalLoop=1;jettySize=auto;html=1;" parent="gD2A0KmRnHL1XULNX4CV-1" source="gD2A0KmRnHL1XULNX4CV-15" target="gD2A0KmRnHL1XULNX4CV-29" edge="1">
          <mxGeometry relative="1" as="geometry" />
        </mxCell>
        <mxCell id="gD2A0KmRnHL1XULNX4CV-14" value="&lt;font style=&quot;font-size: 14px;&quot;&gt;basedOn&lt;/font&gt;" style="edgeLabel;html=1;align=center;verticalAlign=middle;resizable=0;points=[];" parent="gD2A0KmRnHL1XULNX4CV-13" vertex="1" connectable="0">
          <mxGeometry x="-0.5665" y="-3" relative="1" as="geometry">
            <mxPoint x="-2" y="12" as="offset" />
          </mxGeometry>
        </mxCell>
        <mxCell id="gD2A0KmRnHL1XULNX4CV-15" value="&lt;font style=&quot;font-size: 14px;&quot;&gt;Diagnostic Request&lt;/font&gt;" style="rounded=1;arcSize=10;whiteSpace=wrap;html=1;align=center;fillColor=#00B0F0;fontColor=#FFFFFF;" parent="gD2A0KmRnHL1XULNX4CV-1" vertex="1">
          <mxGeometry x="639" y="150" width="156" height="90" as="geometry" />
        </mxCell>
        <mxCell id="gD2A0KmRnHL1XULNX4CV-16" style="edgeStyle=orthogonalEdgeStyle;rounded=0;orthogonalLoop=1;jettySize=auto;html=1;" parent="gD2A0KmRnHL1XULNX4CV-1" source="gD2A0KmRnHL1XULNX4CV-20" target="gD2A0KmRnHL1XULNX4CV-15" edge="1">
          <mxGeometry relative="1" as="geometry" />
        </mxCell>
        <mxCell id="gD2A0KmRnHL1XULNX4CV-17" value="&lt;font style=&quot;font-size: 14px;&quot;&gt;f&lt;/font&gt;&lt;font style=&quot;font-size: 14px;&quot;&gt;ocus&lt;/font&gt;" style="edgeLabel;html=1;align=center;verticalAlign=middle;resizable=0;points=[];" parent="gD2A0KmRnHL1XULNX4CV-16" vertex="1" connectable="0">
          <mxGeometry x="-0.3077" y="2" relative="1" as="geometry">
            <mxPoint x="-28" y="17" as="offset" />
          </mxGeometry>
        </mxCell>
        <mxCell id="gD2A0KmRnHL1XULNX4CV-18" value="&lt;font style=&quot;font-size: 14px;&quot;&gt;partOf&lt;/font&gt;" style="edgeLabel;html=1;align=center;verticalAlign=middle;resizable=0;points=[];" parent="gD2A0KmRnHL1XULNX4CV-1" vertex="1" connectable="0">
          <mxGeometry x="302" y="210" as="geometry" />
        </mxCell>
        <mxCell id="gD2A0KmRnHL1XULNX4CV-19" style="edgeStyle=orthogonalEdgeStyle;rounded=0;orthogonalLoop=1;jettySize=auto;html=1;" parent="gD2A0KmRnHL1XULNX4CV-1" source="gD2A0KmRnHL1XULNX4CV-20" target="gD2A0KmRnHL1XULNX4CV-12" edge="1">
          <mxGeometry relative="1" as="geometry" />
        </mxCell>
        <mxCell id="gD2A0KmRnHL1XULNX4CV-20" value="&lt;font style=&quot;font-size: 14px;&quot;&gt;Task&lt;/font&gt;&lt;div&gt;&lt;font style=&quot;font-size: 14px;&quot;&gt;Diagnostic Request&lt;/font&gt;&lt;/div&gt;" style="rounded=1;arcSize=10;whiteSpace=wrap;html=1;align=center;fillColor=#00B0F0;fontColor=#FFFFFF;" parent="gD2A0KmRnHL1XULNX4CV-1" vertex="1">
          <mxGeometry x="332" y="150" width="156" height="90" as="geometry" />
        </mxCell>
        <mxCell id="gD2A0KmRnHL1XULNX4CV-21" style="edgeStyle=orthogonalEdgeStyle;rounded=0;orthogonalLoop=1;jettySize=auto;html=1;entryX=0;entryY=0.5;entryDx=0;entryDy=0;" parent="gD2A0KmRnHL1XULNX4CV-1" source="gD2A0KmRnHL1XULNX4CV-23" target="gD2A0KmRnHL1XULNX4CV-29" edge="1">
          <mxGeometry relative="1" as="geometry">
            <Array as="points">
              <mxPoint x="900" y="305" />
              <mxPoint x="900" y="195" />
            </Array>
          </mxGeometry>
        </mxCell>
        <mxCell id="gD2A0KmRnHL1XULNX4CV-22" value="&lt;font style=&quot;font-size: 14px;&quot;&gt;basedOn&lt;/font&gt;" style="edgeLabel;html=1;align=center;verticalAlign=middle;resizable=0;points=[];" parent="gD2A0KmRnHL1XULNX4CV-21" vertex="1" connectable="0">
          <mxGeometry x="-0.5275" relative="1" as="geometry">
            <mxPoint x="-28" y="15" as="offset" />
          </mxGeometry>
        </mxCell>
        <mxCell id="gD2A0KmRnHL1XULNX4CV-23" value="&lt;font style=&quot;font-size: 14px;&quot;&gt;Diagnostic Request&lt;/font&gt;" style="rounded=1;arcSize=10;whiteSpace=wrap;html=1;align=center;fillColor=#00B0F0;fontColor=#FFFFFF;" parent="gD2A0KmRnHL1XULNX4CV-1" vertex="1">
          <mxGeometry x="639" y="260" width="156" height="90" as="geometry" />
        </mxCell>
        <mxCell id="gD2A0KmRnHL1XULNX4CV-24" style="edgeStyle=orthogonalEdgeStyle;rounded=0;orthogonalLoop=1;jettySize=auto;html=1;" parent="gD2A0KmRnHL1XULNX4CV-1" source="gD2A0KmRnHL1XULNX4CV-28" target="gD2A0KmRnHL1XULNX4CV-23" edge="1">
          <mxGeometry relative="1" as="geometry" />
        </mxCell>
        <mxCell id="gD2A0KmRnHL1XULNX4CV-25" value="&lt;font style=&quot;font-size: 14px;&quot;&gt;f&lt;/font&gt;&lt;font style=&quot;font-size: 14px;&quot;&gt;ocus&lt;/font&gt;" style="edgeLabel;html=1;align=center;verticalAlign=middle;resizable=0;points=[];" parent="gD2A0KmRnHL1XULNX4CV-24" vertex="1" connectable="0">
          <mxGeometry x="-0.3077" y="2" relative="1" as="geometry">
            <mxPoint x="-28" y="17" as="offset" />
          </mxGeometry>
        </mxCell>
        <mxCell id="gD2A0KmRnHL1XULNX4CV-26" value="&lt;font style=&quot;font-size: 14px;&quot;&gt;partOf&lt;/font&gt;" style="edgeLabel;html=1;align=center;verticalAlign=middle;resizable=0;points=[];" parent="gD2A0KmRnHL1XULNX4CV-1" vertex="1" connectable="0">
          <mxGeometry x="302" y="320" as="geometry" />
        </mxCell>
        <mxCell id="gD2A0KmRnHL1XULNX4CV-27" style="edgeStyle=orthogonalEdgeStyle;rounded=0;orthogonalLoop=1;jettySize=auto;html=1;entryX=1;entryY=0.5;entryDx=0;entryDy=0;" parent="gD2A0KmRnHL1XULNX4CV-1" source="gD2A0KmRnHL1XULNX4CV-28" target="gD2A0KmRnHL1XULNX4CV-12" edge="1">
          <mxGeometry relative="1" as="geometry">
            <Array as="points">
              <mxPoint x="240" y="305" />
              <mxPoint x="240" y="195" />
            </Array>
          </mxGeometry>
        </mxCell>
        <mxCell id="gD2A0KmRnHL1XULNX4CV-28" value="&lt;font style=&quot;font-size: 14px;&quot;&gt;Task&lt;/font&gt;&lt;div&gt;&lt;font style=&quot;font-size: 14px;&quot;&gt;Diagnostic Request&lt;/font&gt;&lt;/div&gt;" style="rounded=1;arcSize=10;whiteSpace=wrap;html=1;align=center;fillColor=#00B0F0;fontColor=#FFFFFF;" parent="gD2A0KmRnHL1XULNX4CV-1" vertex="1">
          <mxGeometry x="332" y="260" width="156" height="90" as="geometry" />
        </mxCell>
        <mxCell id="gD2A0KmRnHL1XULNX4CV-29" value="&lt;font style=&quot;font-size: 14px;&quot;&gt;Diagnostic Request Group&lt;br&gt;(ServiceRequest)&lt;/font&gt;" style="rounded=1;arcSize=10;whiteSpace=wrap;html=1;align=center;fillColor=#ffe6cc;strokeColor=#d79b00;" parent="gD2A0KmRnHL1XULNX4CV-1" vertex="1">
          <mxGeometry x="950" y="150" width="156" height="90" as="geometry" />
        </mxCell>
      </root>
    </mxGraphModel>
  </diagram>
  <diagram name="ServiceRequest Group" id="dCU8sNHxtTPsGfYotqeA">
    <mxGraphModel dx="5320" dy="905" grid="1" gridSize="10" guides="1" tooltips="1" connect="1" arrows="1" fold="1" page="1" pageScale="1" pageWidth="2000" pageHeight="2000" math="0" shadow="0">
      <root>
        <mxCell id="shNRpdQyffIhfnOeJX6S-0" />
        <mxCell id="shNRpdQyffIhfnOeJX6S-1" parent="shNRpdQyffIhfnOeJX6S-0" />
        <mxCell id="shNRpdQyffIhfnOeJX6S-3" value="AU eRequesting Task" style="swimlane;whiteSpace=wrap;html=1;startSize=23;fillColor=#00B0F0;fontColor=#FFFFFF;dashed=1;" parent="shNRpdQyffIhfnOeJX6S-1" vertex="1">
          <mxGeometry x="-3800" y="647" width="590" height="230" as="geometry" />
        </mxCell>
        <mxCell id="shNRpdQyffIhfnOeJX6S-4" value="Task Group" style="swimlane;whiteSpace=wrap;html=1;startSize=23;fillColor=#00B0F0;fontColor=#FFFFFF;" parent="shNRpdQyffIhfnOeJX6S-3" vertex="1">
          <mxGeometry x="330" y="60" width="210" height="144" as="geometry" />
        </mxCell>
        <mxCell id="shNRpdQyffIhfnOeJX6S-5" value="Task Diagnostic Request" style="swimlane;whiteSpace=wrap;html=1;startSize=23;fillColor=#00B0F0;fontColor=#FFFFFF;" parent="shNRpdQyffIhfnOeJX6S-3" vertex="1">
          <mxGeometry x="40" y="60" width="210" height="144" as="geometry" />
        </mxCell>
        <mxCell id="shNRpdQyffIhfnOeJX6S-6" style="edgeStyle=orthogonalEdgeStyle;rounded=0;orthogonalLoop=1;jettySize=auto;html=1;entryX=0;entryY=0.5;entryDx=0;entryDy=0;exitX=1;exitY=0.5;exitDx=0;exitDy=0;" parent="shNRpdQyffIhfnOeJX6S-3" source="shNRpdQyffIhfnOeJX6S-5" target="shNRpdQyffIhfnOeJX6S-4" edge="1">
          <mxGeometry relative="1" as="geometry" />
        </mxCell>
        <mxCell id="shNRpdQyffIhfnOeJX6S-7" value="&lt;font style=&quot;font-size: 14px;&quot;&gt;partOf&lt;/font&gt;" style="edgeLabel;html=1;align=center;verticalAlign=middle;resizable=0;points=[];" parent="shNRpdQyffIhfnOeJX6S-6" vertex="1" connectable="0">
          <mxGeometry x="0.125" relative="1" as="geometry">
            <mxPoint x="-15" y="-17" as="offset" />
          </mxGeometry>
        </mxCell>
        <mxCell id="shNRpdQyffIhfnOeJX6S-14" value="&lt;i&gt;AU eRequesting Diagnostic Request&lt;/i&gt;" style="swimlane;whiteSpace=wrap;html=1;startSize=23;fillColor=#00B0F0;fontColor=#FFFFFF;strokeColor=#000000;dashed=1;" parent="shNRpdQyffIhfnOeJX6S-1" vertex="1">
          <mxGeometry x="-3960" y="40" width="580" height="510" as="geometry" />
        </mxCell>
        <mxCell id="IoK37XOeS0nrboYJsgRP-1" style="edgeStyle=orthogonalEdgeStyle;rounded=0;orthogonalLoop=1;jettySize=auto;html=1;entryX=0.5;entryY=1;entryDx=0;entryDy=0;" parent="shNRpdQyffIhfnOeJX6S-14" source="shNRpdQyffIhfnOeJX6S-15" target="kadM3D3QHVRjQOK5utC7-0" edge="1">
          <mxGeometry relative="1" as="geometry" />
        </mxCell>
        <mxCell id="IoK37XOeS0nrboYJsgRP-2" value="&lt;font style=&quot;font-size: 14px;&quot;&gt;basedOn&lt;/font&gt;" style="edgeLabel;html=1;align=center;verticalAlign=middle;resizable=0;points=[];" parent="IoK37XOeS0nrboYJsgRP-1" vertex="1" connectable="0">
          <mxGeometry x="-0.5594" y="-3" relative="1" as="geometry">
            <mxPoint x="32" y="44" as="offset" />
          </mxGeometry>
        </mxCell>
        <mxCell id="shNRpdQyffIhfnOeJX6S-15" value="Pathology Request" style="swimlane;whiteSpace=wrap;html=1;fillColor=#00B0F0;fontColor=#FFFFFF;startSize=25;verticalAlign=middle;" parent="shNRpdQyffIhfnOeJX6S-14" vertex="1">
          <mxGeometry x="320" y="330" width="210" height="144" as="geometry" />
        </mxCell>
        <mxCell id="IoK37XOeS0nrboYJsgRP-0" style="edgeStyle=orthogonalEdgeStyle;rounded=0;orthogonalLoop=1;jettySize=auto;html=1;entryX=0.5;entryY=1;entryDx=0;entryDy=0;" parent="shNRpdQyffIhfnOeJX6S-14" source="shNRpdQyffIhfnOeJX6S-16" target="kadM3D3QHVRjQOK5utC7-0" edge="1">
          <mxGeometry relative="1" as="geometry" />
        </mxCell>
        <mxCell id="IoK37XOeS0nrboYJsgRP-3" value="&lt;span style=&quot;font-size: 14px;&quot;&gt;basedOn&lt;/span&gt;" style="edgeLabel;html=1;align=center;verticalAlign=middle;resizable=0;points=[];" parent="IoK37XOeS0nrboYJsgRP-0" vertex="1" connectable="0">
          <mxGeometry x="-0.5942" relative="1" as="geometry">
            <mxPoint x="-45" y="36" as="offset" />
          </mxGeometry>
        </mxCell>
        <mxCell id="shNRpdQyffIhfnOeJX6S-16" value="Imaging Request" style="swimlane;whiteSpace=wrap;html=1;fillColor=#00B0F0;fontColor=#FFFFFF;startSize=25;" parent="shNRpdQyffIhfnOeJX6S-14" vertex="1">
          <mxGeometry x="50" y="330" width="210" height="144" as="geometry" />
        </mxCell>
        <mxCell id="kadM3D3QHVRjQOK5utC7-0" value="Diagnostic Request Group" style="swimlane;whiteSpace=wrap;html=1;fillColor=#00B0F0;fontColor=#FFFFFF;startSize=25;verticalAlign=middle;" parent="shNRpdQyffIhfnOeJX6S-14" vertex="1">
          <mxGeometry x="180" y="40" width="210" height="144" as="geometry" />
        </mxCell>
        <mxCell id="shNRpdQyffIhfnOeJX6S-23" style="rounded=0;orthogonalLoop=1;jettySize=auto;html=1;edgeStyle=elbowEdgeStyle;elbow=vertical;jumpStyle=arc;entryX=0.5;entryY=1;entryDx=0;entryDy=0;exitX=0.5;exitY=0;exitDx=0;exitDy=0;" parent="shNRpdQyffIhfnOeJX6S-1" source="shNRpdQyffIhfnOeJX6S-5" target="shNRpdQyffIhfnOeJX6S-15" edge="1">
          <mxGeometry relative="1" as="geometry">
            <mxPoint x="-3738" y="680" as="sourcePoint" />
            <mxPoint x="-3680" y="630" as="targetPoint" />
            <Array as="points">
              <mxPoint x="-3590" y="600" />
            </Array>
          </mxGeometry>
        </mxCell>
        <mxCell id="shNRpdQyffIhfnOeJX6S-24" style="rounded=0;orthogonalLoop=1;jettySize=auto;html=1;edgeStyle=elbowEdgeStyle;flowAnimation=0;jumpStyle=arc;entryX=1;entryY=0.5;entryDx=0;entryDy=0;" parent="shNRpdQyffIhfnOeJX6S-1" target="kadM3D3QHVRjQOK5utC7-0" edge="1">
          <mxGeometry relative="1" as="geometry">
            <mxPoint x="-3260" y="780" as="sourcePoint" />
            <mxPoint x="-3140" y="470" as="targetPoint" />
            <Array as="points">
              <mxPoint x="-3160" y="460" />
            </Array>
          </mxGeometry>
        </mxCell>
        <mxCell id="shNRpdQyffIhfnOeJX6S-25" value="&lt;font style=&quot;font-size: 14px;&quot;&gt;focus&lt;/font&gt;" style="edgeLabel;html=1;align=center;verticalAlign=middle;resizable=0;points=[];" parent="shNRpdQyffIhfnOeJX6S-24" vertex="1" connectable="0">
          <mxGeometry x="-0.4734" y="2" relative="1" as="geometry">
            <mxPoint x="-78" y="182" as="offset" />
          </mxGeometry>
        </mxCell>
        <mxCell id="shNRpdQyffIhfnOeJX6S-31" style="edgeStyle=orthogonalEdgeStyle;rounded=0;orthogonalLoop=1;jettySize=auto;html=1;exitX=0.5;exitY=0;exitDx=0;exitDy=0;entryX=0.5;entryY=1;entryDx=0;entryDy=0;" parent="shNRpdQyffIhfnOeJX6S-1" source="shNRpdQyffIhfnOeJX6S-5" target="shNRpdQyffIhfnOeJX6S-16" edge="1">
          <mxGeometry relative="1" as="geometry">
            <mxPoint x="-3880" y="580" as="targetPoint" />
            <Array as="points">
              <mxPoint x="-3655" y="600" />
              <mxPoint x="-3805" y="600" />
            </Array>
          </mxGeometry>
        </mxCell>
        <mxCell id="shNRpdQyffIhfnOeJX6S-32" value="&lt;font style=&quot;font-size: 14px;&quot;&gt;focus&lt;/font&gt;" style="edgeLabel;html=1;align=center;verticalAlign=middle;resizable=0;points=[];" parent="shNRpdQyffIhfnOeJX6S-31" vertex="1" connectable="0">
          <mxGeometry x="0.2296" relative="1" as="geometry">
            <mxPoint x="137" y="90" as="offset" />
          </mxGeometry>
        </mxCell>
      </root>
    </mxGraphModel>
  </diagram>
  <diagram name="Observation Clinical Context" id="zv7zHqT3ZcngR0rxrvEW">
    <mxGraphModel dx="5667" dy="777" grid="1" gridSize="10" guides="1" tooltips="1" connect="1" arrows="1" fold="1" page="1" pageScale="1" pageWidth="2000" pageHeight="2000" math="0" shadow="0">
      <root>
        <mxCell id="GqV4F6e8m_8AJhMsy2g0-0" />
        <mxCell id="GqV4F6e8m_8AJhMsy2g0-1" parent="GqV4F6e8m_8AJhMsy2g0-0" />
        <mxCell id="GqV4F6e8m_8AJhMsy2g0-3" value="&lt;i&gt;&lt;font style=&quot;font-size: 14px;&quot;&gt;AU eRequesting Task&lt;/font&gt;&lt;/i&gt;" style="swimlane;whiteSpace=wrap;html=1;startSize=23;fillColor=#00B0F0;fontColor=#FFFFFF;dashed=1;" parent="GqV4F6e8m_8AJhMsy2g0-1" vertex="1">
          <mxGeometry x="-3960" y="407" width="580" height="230" as="geometry" />
        </mxCell>
        <mxCell id="GqV4F6e8m_8AJhMsy2g0-4" value="&lt;font style=&quot;font-size: 14px;&quot;&gt;Task Group&lt;/font&gt;" style="swimlane;whiteSpace=wrap;html=1;startSize=23;fillColor=#00B0F0;fontColor=#FFFFFF;" parent="GqV4F6e8m_8AJhMsy2g0-3" vertex="1">
          <mxGeometry x="30" y="60" width="210" height="144" as="geometry" />
        </mxCell>
        <mxCell id="GqV4F6e8m_8AJhMsy2g0-5" value="&lt;font style=&quot;font-size: 14px;&quot;&gt;Task Diagnostic Request&lt;/font&gt;" style="swimlane;whiteSpace=wrap;html=1;startSize=23;fillColor=#00B0F0;fontColor=#FFFFFF;" parent="GqV4F6e8m_8AJhMsy2g0-3" vertex="1">
          <mxGeometry x="340" y="60" width="210" height="144" as="geometry" />
        </mxCell>
        <mxCell id="GqV4F6e8m_8AJhMsy2g0-6" style="edgeStyle=orthogonalEdgeStyle;rounded=0;orthogonalLoop=1;jettySize=auto;html=1;entryX=1;entryY=0.5;entryDx=0;entryDy=0;exitX=0;exitY=0.5;exitDx=0;exitDy=0;" parent="GqV4F6e8m_8AJhMsy2g0-3" source="GqV4F6e8m_8AJhMsy2g0-5" target="GqV4F6e8m_8AJhMsy2g0-4" edge="1">
          <mxGeometry relative="1" as="geometry" />
        </mxCell>
        <mxCell id="GqV4F6e8m_8AJhMsy2g0-7" value="&lt;font style=&quot;font-size: 14px;&quot;&gt;partOf&lt;/font&gt;" style="edgeLabel;html=1;align=center;verticalAlign=middle;resizable=0;points=[];" parent="GqV4F6e8m_8AJhMsy2g0-6" vertex="1" connectable="0">
          <mxGeometry x="0.125" relative="1" as="geometry">
            <mxPoint x="21" y="-17" as="offset" />
          </mxGeometry>
        </mxCell>
        <mxCell id="GqV4F6e8m_8AJhMsy2g0-12" style="edgeStyle=orthogonalEdgeStyle;rounded=0;orthogonalLoop=1;jettySize=auto;html=1;" parent="GqV4F6e8m_8AJhMsy2g0-1" edge="1">
          <mxGeometry relative="1" as="geometry">
            <mxPoint x="-3260" y="243" as="sourcePoint" />
            <mxPoint x="-3010" y="243" as="targetPoint" />
            <Array as="points">
              <mxPoint x="-3230" y="243" />
            </Array>
          </mxGeometry>
        </mxCell>
        <mxCell id="GqV4F6e8m_8AJhMsy2g0-13" value="&lt;font style=&quot;font-size: 14px;&quot;&gt;supportingInfo:pregnancyStatus&lt;/font&gt;" style="edgeLabel;html=1;align=center;verticalAlign=middle;resizable=0;points=[];" parent="GqV4F6e8m_8AJhMsy2g0-12" vertex="1" connectable="0">
          <mxGeometry x="-0.7204" y="3" relative="1" as="geometry">
            <mxPoint x="75" y="-10" as="offset" />
          </mxGeometry>
        </mxCell>
        <mxCell id="jdKIbqnsPBsSVtonAdLZ-2" style="edgeStyle=orthogonalEdgeStyle;rounded=0;orthogonalLoop=1;jettySize=auto;html=1;entryX=0;entryY=0.5;entryDx=0;entryDy=0;" parent="GqV4F6e8m_8AJhMsy2g0-1" source="GqV4F6e8m_8AJhMsy2g0-14" target="jdKIbqnsPBsSVtonAdLZ-1" edge="1">
          <mxGeometry relative="1" as="geometry">
            <Array as="points">
              <mxPoint x="-3190" y="115" />
              <mxPoint x="-3190" y="115" />
            </Array>
          </mxGeometry>
        </mxCell>
        <mxCell id="jdKIbqnsPBsSVtonAdLZ-3" value="&lt;span style=&quot;font-size: 14px;&quot;&gt;supportingInfo:clinicalContext&lt;/span&gt;" style="edgeLabel;html=1;align=center;verticalAlign=middle;resizable=0;points=[];" parent="jdKIbqnsPBsSVtonAdLZ-2" vertex="1" connectable="0">
          <mxGeometry x="-0.192" y="2" relative="1" as="geometry">
            <mxPoint y="-13" as="offset" />
          </mxGeometry>
        </mxCell>
        <mxCell id="GqV4F6e8m_8AJhMsy2g0-14" value="&lt;i&gt;&lt;font style=&quot;font-size: 14px;&quot;&gt;AU eRequesting Diagnostic Request&lt;/font&gt;&lt;/i&gt;" style="swimlane;whiteSpace=wrap;html=1;startSize=23;fillColor=#00B0F0;fontColor=#FFFFFF;strokeColor=#000000;dashed=1;" parent="GqV4F6e8m_8AJhMsy2g0-1" vertex="1">
          <mxGeometry x="-3820" y="40" width="560" height="220" as="geometry" />
        </mxCell>
        <mxCell id="GqV4F6e8m_8AJhMsy2g0-15" value="&lt;font style=&quot;font-size: 14px;&quot;&gt;Pathology Request&lt;/font&gt;" style="swimlane;whiteSpace=wrap;html=1;fillColor=#00B0F0;fontColor=#FFFFFF;startSize=25;verticalAlign=middle;" parent="GqV4F6e8m_8AJhMsy2g0-14" vertex="1">
          <mxGeometry x="320" y="45" width="210" height="144" as="geometry" />
        </mxCell>
        <mxCell id="GqV4F6e8m_8AJhMsy2g0-16" value="&lt;font style=&quot;font-size: 14px;&quot;&gt;Imaging Request&lt;/font&gt;" style="swimlane;whiteSpace=wrap;html=1;fillColor=#00B0F0;fontColor=#FFFFFF;startSize=25;" parent="GqV4F6e8m_8AJhMsy2g0-14" vertex="1">
          <mxGeometry x="50" y="45" width="210" height="144" as="geometry" />
        </mxCell>
        <mxCell id="GqV4F6e8m_8AJhMsy2g0-25" style="rounded=0;orthogonalLoop=1;jettySize=auto;html=1;edgeStyle=elbowEdgeStyle;elbow=vertical;jumpStyle=arc;entryX=0.5;entryY=1;entryDx=0;entryDy=0;exitX=0.5;exitY=0;exitDx=0;exitDy=0;" parent="GqV4F6e8m_8AJhMsy2g0-1" source="GqV4F6e8m_8AJhMsy2g0-5" target="GqV4F6e8m_8AJhMsy2g0-15" edge="1">
          <mxGeometry relative="1" as="geometry">
            <mxPoint x="-3598" y="440" as="sourcePoint" />
            <mxPoint x="-3540" y="390" as="targetPoint" />
            <Array as="points">
              <mxPoint x="-3460" y="340" />
            </Array>
          </mxGeometry>
        </mxCell>
        <mxCell id="GqV4F6e8m_8AJhMsy2g0-33" style="edgeStyle=orthogonalEdgeStyle;rounded=0;orthogonalLoop=1;jettySize=auto;html=1;exitX=0.5;exitY=0;exitDx=0;exitDy=0;entryX=0.5;entryY=1;entryDx=0;entryDy=0;" parent="GqV4F6e8m_8AJhMsy2g0-1" source="GqV4F6e8m_8AJhMsy2g0-5" target="GqV4F6e8m_8AJhMsy2g0-16" edge="1">
          <mxGeometry relative="1" as="geometry">
            <mxPoint x="-3740" y="340" as="targetPoint" />
            <Array as="points">
              <mxPoint x="-3515" y="340" />
              <mxPoint x="-3665" y="340" />
            </Array>
          </mxGeometry>
        </mxCell>
        <mxCell id="GqV4F6e8m_8AJhMsy2g0-34" value="&lt;font style=&quot;font-size: 14px;&quot;&gt;focus&lt;/font&gt;" style="edgeLabel;html=1;align=center;verticalAlign=middle;resizable=0;points=[];" parent="GqV4F6e8m_8AJhMsy2g0-33" vertex="1" connectable="0">
          <mxGeometry x="0.2296" relative="1" as="geometry">
            <mxPoint x="137" y="110" as="offset" />
          </mxGeometry>
        </mxCell>
        <mxCell id="GqV4F6e8m_8AJhMsy2g0-36" value="&lt;font style=&quot;font-size: 14px;&quot;&gt;Observation Pregnancy -&lt;/font&gt;&lt;div&gt;&lt;font style=&quot;font-size: 14px;&quot;&gt;Status (IPS)&lt;/font&gt;&lt;/div&gt;" style="swimlane;whiteSpace=wrap;html=1;fillColor=light-dark(#ff9900, #9a5800);strokeColor=light-dark(#000000, #c17f1f);startSize=40;fontSize=12;verticalAlign=bottom;horizontal=1;fontColor=#FFFFFF;snapToPoint=0;" parent="GqV4F6e8m_8AJhMsy2g0-1" vertex="1">
          <mxGeometry x="-3010" y="200" width="190" height="130" as="geometry" />
        </mxCell>
        <mxCell id="jdKIbqnsPBsSVtonAdLZ-1" value="&lt;font style=&quot;font-size: 14px;&quot;&gt;Observation Clinical Context&lt;/font&gt;" style="swimlane;whiteSpace=wrap;html=1;fillColor=#00B0F0;strokeColor=light-dark(#000000, #c17f1f);startSize=40;fontSize=12;verticalAlign=bottom;horizontal=1;fontColor=#FFFFFF;snapToPoint=0;" parent="GqV4F6e8m_8AJhMsy2g0-1" vertex="1">
          <mxGeometry x="-3010" y="50" width="190" height="130" as="geometry" />
        </mxCell>
      </root>
    </mxGraphModel>
  </diagram>
</mxfile>